<svg width="192" height="136" viewBox="0 0 192 136" fill="none" xmlns="http://www.w3.org/2000/svg">
<rect x="0.355556" y="0.355556" width="191.289" height="135.289" rx="2.26865" fill="white"/>
<rect x="0.355556" y="0.355556" width="191.289" height="135.289" rx="2.26865" stroke="#E7EDF8" stroke-width="0.711111"/>
<path d="M20.4125 18.8687C20.4125 19.7646 20.2854 20.6187 20.0313 21.4312C19.7813 22.2396 19.4125 22.9583 18.925 23.5875C18.4375 24.2167 17.85 24.6917 17.1625 25.0125L16.25 23.7562C16.8625 23.4771 17.3833 23.0792 17.8125 22.5625C18.2458 22.0458 18.5708 21.4687 18.7875 20.8312C19.0083 20.1896 19.1188 19.5354 19.1188 18.8687V17.5437H20.4125V18.8687ZM20.7438 18.8687C20.7438 19.5021 20.8521 20.1208 21.0688 20.725C21.2854 21.3292 21.6083 21.875 22.0375 22.3625C22.4667 22.8458 22.9875 23.2146 23.6 23.4687L22.7375 24.7187C22.0333 24.4146 21.4375 23.9667 20.95 23.375C20.4625 22.7833 20.0958 22.1021 19.85 21.3312C19.6083 20.5562 19.4875 19.7354 19.4875 18.8687V17.5437H20.7438V18.8687ZM23.1313 18.175H16.7063V16.875H23.1313V18.175ZM25.8625 27.15H24.2438V15.7625H25.8625V27.15ZM36.6688 22.1312H28.6313V20.8625H36.6688V22.1312ZM37.8063 25.8625H27.4063V24.5562H37.8063V25.8625ZM33.3688 24.975H31.8V21.4437H33.3688V24.975ZM36.5875 17.8437H30.225V21.4375H28.6313V16.5812H36.5875V17.8437ZM47.5562 21.25H42.0062V16.4562H47.5562V21.25ZM43.5687 20.0062H45.9812V17.7062H43.5687V20.0062ZM50.9312 22.225H49.35V15.7625H50.9312V22.225ZM47.65 23.8312C47.65 24.3812 47.4729 24.8896 47.1187 25.3562C46.7646 25.8187 46.2479 26.2063 45.5687 26.5188C44.8937 26.8313 44.0875 27.0333 43.15 27.125L42.6062 25.925C43.3854 25.8542 44.0521 25.7083 44.6062 25.4875C45.1646 25.2667 45.5812 25.0104 45.8562 24.7187C46.1312 24.4271 46.2687 24.1312 46.2687 23.8312V23.675H47.65V23.8312ZM47.925 23.8312C47.925 24.1187 48.0625 24.4104 48.3375 24.7062C48.6167 24.9979 49.0312 25.2542 49.5812 25.475C50.1354 25.6958 50.8 25.8458 51.575 25.925L51.0437 27.125C50.1104 27.0375 49.3042 26.8333 48.625 26.5125C47.9458 26.1958 47.4312 25.8042 47.0812 25.3375C46.7312 24.8667 46.5562 24.3646 46.5562 23.8312V23.675H47.925V23.8312ZM51.1375 24.0312H43.0687V22.85H51.1375V24.0312ZM47.8937 23.4125H46.2937V21.9125H47.8937V23.4125ZM64.9687 21.5H63.375V15.7625H64.9687V21.5ZM61.5187 16.1875C61.5187 17.225 61.325 18.1125 60.9375 18.85C60.55 19.5833 59.9625 20.1875 59.175 20.6625C58.3875 21.1333 57.3854 21.4896 56.1687 21.7312L55.6125 20.45C56.6042 20.2667 57.4083 20.0125 58.025 19.6875C58.6417 19.3625 59.0875 18.9854 59.3625 18.5562C59.6417 18.1271 59.7812 17.6479 59.7812 17.1187V16.1875H61.5187ZM60.8812 17.4687H56.225V16.1875H60.8812V17.4687ZM64.9687 25.025H58.975V26.3H57.3687V23.8687H63.3687V23.1812H57.3437V21.95H64.9687V25.025ZM65.2812 27.0375H57.3687V25.8062H65.2812V27.0375ZM70.3937 18.0875C70.3937 18.7458 70.2729 19.3562 70.0312 19.9187C69.7937 20.4771 69.4333 20.9646 68.95 21.3812C68.4708 21.7937 67.8792 22.0979 67.175 22.2937L66.4187 21.0437C67.0146 20.8854 67.5146 20.6562 67.9187 20.3562C68.3271 20.0521 68.6292 19.7062 68.825 19.3187C69.0208 18.9271 69.1187 18.5167 69.1187 18.0875V17.65H70.3937V18.0875ZM70.7 18.0875C70.7 18.4792 70.7958 18.8583 70.9875 19.225C71.1833 19.5875 71.4812 19.9125 71.8812 20.2C72.2812 20.4875 72.7771 20.7104 73.3687 20.8687L72.6625 22.0812C71.95 21.9021 71.3479 21.6167 70.8562 21.225C70.3687 20.8292 70.0042 20.3646 69.7625 19.8312C69.525 19.2937 69.4062 18.7125 69.4062 18.0875V17.65H70.7V18.0875ZM72.9937 18.1312H66.825V16.875H72.9937V18.1312ZM70.7187 17.4625H69.1187V15.725H70.7187V17.4625ZM75.5375 22.2562H73.9437V15.7625H75.5375V22.2562ZM77.075 19.6375H75.0875V18.325H77.075V19.6375ZM72.3375 23.5437C72.3375 24.1437 72.1708 24.6896 71.8375 25.1812C71.5083 25.6687 71.0271 26.0792 70.3937 26.4125C69.7604 26.75 68.9979 26.9792 68.1062 27.1L67.525 25.8937C68.2792 25.7979 68.9167 25.6312 69.4375 25.3937C69.9625 25.1521 70.3542 24.8729 70.6125 24.5562C70.8708 24.2354 71 23.8979 71 23.5437V23.2625H72.3375V23.5437ZM72.7062 23.5437C72.7062 23.8854 72.8354 24.2167 73.0937 24.5375C73.3562 24.8583 73.7479 25.1417 74.2687 25.3875C74.7937 25.6333 75.4292 25.8062 76.175 25.9062L75.6125 27.125C74.7167 27.0042 73.9458 26.7729 73.3 26.4313C72.6583 26.0938 72.1708 25.6771 71.8375 25.1812C71.5042 24.6812 71.3375 24.1354 71.3375 23.5437V23.2625H72.7062V23.5437ZM75.6812 23.9937H68.0125V22.7437H75.6812V23.9937ZM87.1375 27.15H85.5187V15.7625H87.1375V27.15ZM83.7312 16.9625C83.7312 18.1833 83.5667 19.2917 83.2375 20.2875C82.9125 21.2792 82.3604 22.1917 81.5812 23.025C80.8021 23.8542 79.7583 24.5792 78.45 25.2L77.6125 23.925C78.7083 23.4083 79.5875 22.8271 80.25 22.1812C80.9125 21.5354 81.3937 20.8104 81.6937 20.0062C81.9937 19.2021 82.1437 18.2812 82.1437 17.2437V16.9625H83.7312ZM82.875 18.2187H78.2187V16.9625H82.875V18.2187Z" fill="black"/>
<path d="M16.715 40.135H22.127V40.927H19.894V42.06C19.894 43.699 21.016 45.36 22.457 45.976L21.918 46.735C20.807 46.218 19.883 45.14 19.432 43.831C18.981 45.228 18.068 46.427 16.946 46.977L16.396 46.218C17.815 45.547 18.937 43.732 18.937 42.06V40.927H16.715V40.135ZM23.381 39.156H24.338V48.836H23.381V39.156ZM26.9123 39.904H33.4793V40.674H27.8693V43.633H33.5783V44.414H30.6523V46.834H34.5793V47.626H25.8123V46.834H29.7063V44.414H26.9123V39.904ZM38.0995 39.772C39.5845 39.772 40.6625 40.707 40.6625 42.06C40.6625 43.27 39.8045 44.139 38.5725 44.315V45.91C39.4415 45.866 40.3105 45.8 41.1245 45.69L41.2015 46.394C39.1665 46.746 36.9115 46.757 35.2395 46.757L35.0965 45.965C35.8555 45.965 36.7245 45.965 37.6265 45.943V44.315C36.3835 44.139 35.5255 43.27 35.5255 42.06C35.5255 40.707 36.6035 39.772 38.0995 39.772ZM38.0995 40.575C37.1425 40.575 36.4495 41.18 36.4495 42.06C36.4495 42.94 37.1425 43.545 38.0995 43.545C39.0455 43.545 39.7275 42.94 39.7275 42.06C39.7275 41.18 39.0455 40.575 38.0995 40.575ZM41.7185 39.145H42.6535V43.116H44.1605V43.908H42.6535V48.825H41.7185V39.145ZM47.3669 40.179H48.3019V45.58C49.3139 45.569 50.2709 45.503 51.3709 45.272L51.5029 46.086C50.2489 46.35 49.1709 46.394 48.0049 46.394H47.3669V40.179ZM54.2529 39.145H55.1549V48.825H54.2529V39.145ZM50.0509 42.379H52.1959V39.365H53.0869V48.341H52.1959V43.16H50.0509V42.379ZM63.2842 39.134H64.2412V48.847H63.2842V39.134ZM56.8492 39.97H57.7952V42.489H60.4902V39.97H61.4252V46.515H56.8492V39.97ZM57.7952 43.237V45.734H60.4902V43.237H57.7952ZM73.0304 39.145H73.9434V48.825H73.0304V39.145ZM71.0064 39.398H71.9084V48.341H71.0064V43.842H69.0704C68.4984 44.964 67.5854 45.954 66.2324 46.757L65.6824 46.064C67.7504 44.843 68.7404 43.16 68.9054 41.147H66.1114V40.366H69.8514C69.8514 41.312 69.7194 42.225 69.4114 43.072H71.0064V39.398ZM82.0727 39.134H83.0297V48.847H82.0727V39.134ZM77.9037 39.882C79.3447 39.882 80.3787 41.191 80.3787 43.27C80.3787 45.338 79.3447 46.658 77.9037 46.658C76.4627 46.658 75.4287 45.338 75.4287 43.27C75.4287 41.191 76.4627 39.882 77.9037 39.882ZM77.9037 40.74C76.9907 40.74 76.3527 41.719 76.3527 43.27C76.3527 44.821 76.9907 45.811 77.9037 45.811C78.8167 45.811 79.4547 44.821 79.4547 43.27C79.4547 41.719 78.8167 40.74 77.9037 40.74ZM89.608 40.542H91.511V39.156H92.468V46.372H91.511V43.303H89.608V42.522H91.511V41.334H89.608V40.542ZM86.88 39.684H87.837V40.916C87.837 42.324 88.739 43.655 90.147 44.205L89.63 44.953C88.585 44.513 87.782 43.666 87.375 42.61C86.957 43.743 86.121 44.656 84.999 45.107L84.493 44.359C85.956 43.787 86.88 42.412 86.88 40.916V39.684ZM86.22 45.646H87.166V47.846H92.699V48.616H86.22V45.646ZM18.772 55.981H19.707V57.664C19.707 59.369 20.73 61.14 22.138 61.833L21.555 62.581C20.51 62.031 19.674 60.931 19.245 59.611C18.816 61.019 17.947 62.196 16.858 62.779L16.275 62.009C17.716 61.294 18.772 59.435 18.772 57.664V55.981ZM22.919 55.156H23.876V59.039H25.449V59.853H23.876V64.836H22.919V55.156ZM25.8123 59.919H27.9463V58.577C27.1873 58.269 26.7583 57.785 26.7583 57.136C26.7583 55.992 28.0783 55.332 30.1793 55.332C32.2803 55.332 33.6003 55.992 33.6003 57.136C33.6003 57.774 33.1713 58.269 32.4233 58.577V59.919H34.5573V60.667H25.8123V59.919ZM30.1793 61.371C32.2473 61.371 33.5013 61.998 33.5013 63.087C33.5013 64.198 32.2473 64.825 30.1793 64.825C28.1003 64.825 26.8573 64.198 26.8573 63.087C26.8573 61.998 28.1003 61.371 30.1793 61.371ZM30.1793 62.108C28.6833 62.108 27.8143 62.471 27.8143 63.087C27.8143 63.736 28.6833 64.088 30.1793 64.088C31.6643 64.088 32.5333 63.736 32.5333 63.087C32.5333 62.471 31.6643 62.108 30.1793 62.108ZM30.1793 56.058C28.6723 56.058 27.7373 56.454 27.7373 57.136C27.7373 57.807 28.6723 58.203 30.1793 58.203C31.6863 58.203 32.6213 57.807 32.6213 57.136C32.6213 56.454 31.6863 56.058 30.1793 56.058ZM28.8813 59.919H31.4773V58.83C31.0923 58.896 30.6523 58.929 30.1793 58.929C29.7063 58.929 29.2663 58.896 28.8813 58.83V59.919ZM42.1805 55.134H43.1375V64.847H42.1805V55.134ZM38.0115 55.882C39.4525 55.882 40.4865 57.191 40.4865 59.27C40.4865 61.338 39.4525 62.658 38.0115 62.658C36.5705 62.658 35.5365 61.338 35.5365 59.27C35.5365 57.191 36.5705 55.882 38.0115 55.882ZM38.0115 56.74C37.0985 56.74 36.4605 57.719 36.4605 59.27C36.4605 60.821 37.0985 61.811 38.0115 61.811C38.9245 61.811 39.5625 60.821 39.5625 59.27C39.5625 57.719 38.9245 56.74 38.0115 56.74ZM53.4169 55.134H54.3849V59.039H55.8919V59.842H54.3849V64.825H53.4169V55.134ZM51.8769 56.179C51.8769 58.951 50.6339 61.437 47.4879 63.01L46.9489 62.284C49.3909 61.052 50.6999 59.237 50.9089 56.96H47.4219V56.179H51.8769ZM57.4982 55.343H58.4332V57.807H64.0762V58.577H57.4982V55.343ZM56.3212 59.655H65.0662V60.436H56.3212V59.655ZM60.6772 61.272C62.7452 61.272 63.9992 61.91 63.9992 63.032C63.9992 64.154 62.7452 64.803 60.6772 64.803C58.5982 64.803 57.3552 64.154 57.3552 63.032C57.3552 61.91 58.5982 61.272 60.6772 61.272ZM60.6772 62.02C59.1922 62.02 58.3122 62.383 58.3122 63.032C58.3122 63.681 59.1922 64.044 60.6772 64.044C62.1622 64.044 63.0312 63.681 63.0312 63.032C63.0312 62.383 62.1622 62.02 60.6772 62.02ZM65.6824 56.784H67.6074V55.42H68.5424V56.784H70.4564V57.554H65.6824V56.784ZM68.0804 58.17C69.2904 58.17 70.1704 59.094 70.1704 60.392C70.1704 61.701 69.2904 62.614 68.0804 62.614C66.8704 62.614 66.0014 61.701 66.0014 60.392C66.0014 59.094 66.8704 58.17 68.0804 58.17ZM68.0804 58.973C67.3544 58.973 66.8484 59.556 66.8484 60.392C66.8484 61.228 67.3544 61.811 68.0804 61.811C68.7954 61.811 69.3234 61.228 69.3234 60.392C69.3234 59.556 68.7954 58.973 68.0804 58.973ZM72.9974 55.145H73.8994V64.825H72.9974V59.985H71.8204V64.363H70.9294V55.376H71.8204V59.204H72.9974V55.145ZM75.0987 62.812H77.2217V60.238C76.4187 59.798 75.9347 59.116 75.9347 58.236C75.9347 56.718 77.4197 55.739 79.4657 55.739C81.5337 55.739 82.9967 56.718 82.9967 58.236C82.9967 59.105 82.5237 59.787 81.7427 60.216V62.812H83.8657V63.593H75.0987V62.812ZM79.4657 56.487C77.9477 56.487 76.8697 57.18 76.8697 58.236C76.8697 59.303 77.9477 59.985 79.4657 59.985C80.9947 59.985 82.0727 59.303 82.0727 58.236C82.0727 57.18 80.9947 56.487 79.4657 56.487ZM78.1677 62.812H80.7857V60.579C80.3897 60.678 79.9387 60.733 79.4657 60.733C79.0037 60.733 78.5637 60.678 78.1677 60.59V62.812ZM86.44 55.937L86.297 62.02H85.439L85.274 55.937H86.44ZM85.879 62.988C86.22 62.988 86.462 63.23 86.462 63.582C86.462 63.934 86.22 64.187 85.879 64.187C85.527 64.187 85.274 63.934 85.274 63.582C85.274 63.23 85.527 62.988 85.879 62.988Z" fill="#7B8598"/>
<circle cx="146.5" cy="92.5" r="35" fill="#FAFAFA" stroke="#E7EDF8"/>
<ellipse cx="144.351" cy="115.13" rx="8" ry="3" transform="rotate(5.9 144.351 115.13)" fill="#8B8989" fill-opacity="0.28"/>
<path d="M149.331 71.1168C158.158 72.0298 164.642 79.2751 163.812 87.2997C163.022 94.9398 153.064 106.979 145.802 114.522C145.256 115.09 144.327 114.985 143.912 114.315C137.35 103.694 131.049 91.6995 131.845 83.9938C132.675 75.9691 140.504 70.2039 149.331 71.1168ZM148.411 80.0186C144.724 79.6373 141.425 82.3173 141.044 86.0044C140.663 89.6917 143.342 92.9908 147.03 93.3722C150.717 93.7535 154.015 91.0726 154.396 87.3853C154.778 83.6982 152.098 80.3999 148.411 80.0186Z" fill="#C3DFCE" fill-opacity="0.97"/>
<circle cx="147.72" cy="86.6951" r="6.71208" transform="rotate(5.90451 147.72 86.6951)" fill="#013945"/>
</svg>
