<svg width="192" height="136" viewBox="0 0 192 136" fill="none" xmlns="http://www.w3.org/2000/svg">
<rect x="0.355556" y="0.355556" width="191.289" height="135.289" rx="2.26865" fill="white"/>
<rect x="0.355556" y="0.355556" width="191.289" height="135.289" rx="2.26865" stroke="#E7EDF8" stroke-width="0.711111"/>
<path d="M20.2688 16.8625C20.2688 18.1542 20.1313 19.3021 19.8563 20.3062C19.5813 21.3062 19.0688 22.2396 18.3188 23.1062C17.5729 23.9687 16.5188 24.7437 15.1563 25.4312L14.2875 24.225C15.45 23.65 16.3542 23.0146 17 22.3187C17.6458 21.6229 18.0938 20.8583 18.3438 20.025C18.5938 19.1917 18.7188 18.2062 18.7188 17.0687V16.8625H20.2688ZM19.6688 18.1437H15.0063V16.8625H19.6688V18.1437ZM14.6 21.275L14.4063 19.9125L18.75 19.6562V20.8875L14.6 21.275ZM23.3125 27.1313H21.7125V15.7625H23.3125V27.1313ZM24.9188 21.45H22.9V20.1375H24.9188V21.45ZM31.3313 16.8625C31.3313 18.1542 31.1938 19.3021 30.9188 20.3062C30.6438 21.3062 30.1313 22.2396 29.3813 23.1062C28.6354 23.9687 27.5813 24.7437 26.2188 25.4312L25.35 24.225C26.5125 23.65 27.4167 23.0146 28.0625 22.3187C28.7083 21.6229 29.1563 20.8583 29.4063 20.025C29.6563 19.1917 29.7813 18.2062 29.7813 17.0687V16.8625H31.3313ZM30.7313 18.1437H26.0688V16.8625H30.7313V18.1437ZM25.6625 21.275L25.4688 19.9125L29.8125 19.6562V20.8875L25.6625 21.275ZM34.375 27.1313H32.775V15.7625H34.375V27.1313ZM35.9813 21.45H33.9625V20.1375H35.9813V21.45ZM42.4313 24.7812H40.8625V22.1625H42.4313V24.7812ZM41.65 16.3562C42.4625 16.3562 43.1938 16.4875 43.8438 16.75C44.4979 17.0083 45.0083 17.375 45.375 17.85C45.7458 18.3208 45.9313 18.8625 45.9313 19.475C45.9313 20.1042 45.7458 20.6562 45.375 21.1312C45.0083 21.6062 44.5 21.9729 43.85 22.2312C43.2 22.4896 42.4667 22.6187 41.65 22.6187C40.8375 22.6187 40.1063 22.4896 39.4563 22.2312C38.8104 21.9729 38.3021 21.6062 37.9313 21.1312C37.5604 20.6562 37.375 20.1042 37.375 19.475C37.375 18.8625 37.5604 18.3208 37.9313 17.85C38.3021 17.375 38.8104 17.0083 39.4563 16.75C40.1063 16.4875 40.8375 16.3562 41.65 16.3562ZM41.65 17.6312C41.125 17.6312 40.6563 17.7062 40.2438 17.8562C39.8354 18.0021 39.5167 18.2146 39.2875 18.4937C39.0625 18.7729 38.95 19.1 38.95 19.475C38.95 19.8625 39.0625 20.1979 39.2875 20.4812C39.5167 20.7646 39.8333 20.9792 40.2375 21.125C40.6458 21.2708 41.1167 21.3458 41.65 21.35C42.1917 21.3458 42.6646 21.2708 43.0688 21.125C43.4729 20.9792 43.7875 20.7646 44.0125 20.4812C44.2417 20.1979 44.3563 19.8625 44.3563 19.475C44.3563 19.1 44.2417 18.7729 44.0125 18.4937C43.7875 18.2146 43.4708 18.0021 43.0625 17.8562C42.6542 17.7062 42.1833 17.6312 41.65 17.6312ZM46.8688 25.8187H36.4688V24.5125H46.8688V25.8187ZM57.9063 23.0687H47.5063V21.8062H57.9063V23.0687ZM53.4938 22.1437H51.8938V20.4437H53.4938V22.1437ZM56.6188 27.15H55.0125V25.0125H48.675V23.7562H56.6188V27.15ZM56.7813 20.9687H48.8063V19.7562H56.7813V20.9687ZM56.6938 17.2625H50.4V20.3875H48.8063V16.0312H56.6938V17.2625ZM56.4188 19.075H49.9438V17.8937H56.4188V19.075ZM66.675 22.8625C67.5083 22.8625 68.2271 22.9458 68.8313 23.1125C69.4396 23.2792 69.9083 23.525 70.2375 23.85C70.5708 24.1708 70.7375 24.5583 70.7375 25.0125C70.7375 25.4542 70.5708 25.8354 70.2375 26.1563C69.9083 26.4771 69.4375 26.7229 68.825 26.8938C68.2167 27.0646 67.5 27.15 66.675 27.15C65.8583 27.15 65.1458 27.0646 64.5375 26.8938C63.9292 26.7229 63.4583 26.4771 63.125 26.1563C62.7917 25.8354 62.625 25.4542 62.625 25.0125C62.625 24.5625 62.7896 24.175 63.1188 23.85C63.4479 23.525 63.9167 23.2792 64.525 23.1125C65.1375 22.9458 65.8542 22.8625 66.675 22.8625ZM66.675 24.0437C66.15 24.0437 65.7042 24.0812 65.3375 24.1562C64.975 24.2271 64.6958 24.3354 64.5 24.4812C64.3083 24.6229 64.2125 24.8 64.2125 25.0125C64.2125 25.2167 64.3083 25.3875 64.5 25.525C64.6958 25.6625 64.975 25.7667 65.3375 25.8375C65.7042 25.9042 66.15 25.9375 66.675 25.9375C67.2042 25.9375 67.6521 25.9042 68.0188 25.8375C68.3854 25.7667 68.6646 25.6604 68.8563 25.5187C69.0521 25.3771 69.15 25.2083 69.15 25.0125C69.15 24.8 69.0521 24.6229 68.8563 24.4812C68.6646 24.3354 68.3854 24.2271 68.0188 24.1562C67.6521 24.0812 67.2042 24.0437 66.675 24.0437ZM70 17.5375H62.7375V16.2812H70V17.5375ZM71.9063 22.1437H61.575V20.8562H71.9063V22.1437ZM67.025 21.2H65.4438V18.8625H67.025V21.2ZM70.6813 17.2125C70.6813 17.8292 70.6625 18.3625 70.625 18.8125C70.5917 19.2583 70.5021 19.7417 70.3563 20.2625L68.7875 20.1062C68.9208 19.5812 69.0021 19.1167 69.0313 18.7125C69.0646 18.3083 69.0833 17.8083 69.0875 17.2125V16.2812H70.6813V17.2125ZM76.6188 27.15H74.9813V22.9437H76.6188V27.15ZM80.5688 27.15H78.95V22.9437H80.5688V27.15ZM83.0063 23.3875H72.6063V22.1H83.0063V23.3875ZM77.775 16.15C78.5875 16.15 79.3063 16.2562 79.9313 16.4687C80.5604 16.6771 81.0479 16.975 81.3938 17.3625C81.7438 17.75 81.9188 18.2021 81.9188 18.7187C81.9188 19.2187 81.7438 19.6583 81.3938 20.0375C81.0479 20.4167 80.5604 20.7104 79.9313 20.9187C79.3063 21.1229 78.5875 21.2271 77.775 21.2312C76.9625 21.2271 76.2438 21.1229 75.6188 20.9187C74.9979 20.7104 74.5125 20.4167 74.1625 20.0375C73.8167 19.6583 73.6438 19.2187 73.6438 18.7187C73.6438 18.2021 73.8167 17.75 74.1625 17.3625C74.5083 16.975 74.9938 16.6771 75.6188 16.4687C76.2479 16.2562 76.9667 16.15 77.775 16.15ZM77.775 17.425C77.2667 17.425 76.825 17.475 76.45 17.575C76.075 17.675 75.7875 17.8229 75.5875 18.0187C75.3917 18.2104 75.2938 18.4437 75.2938 18.7187C75.2938 18.9812 75.3917 19.2062 75.5875 19.3937C75.7875 19.5812 76.075 19.725 76.45 19.825C76.825 19.9208 77.2667 19.9687 77.775 19.9687C78.2875 19.9687 78.7313 19.9208 79.1063 19.825C79.4854 19.725 79.775 19.5812 79.975 19.3937C80.175 19.2062 80.275 18.9812 80.275 18.7187C80.275 18.4437 80.175 18.2104 79.975 18.0187C79.775 17.8229 79.4854 17.675 79.1063 17.575C78.7313 17.475 78.2875 17.425 77.775 17.425Z" fill="black"/>
<path d="M19.401 40.135C19.401 42.973 18.499 45.525 15.012 47.263L14.495 46.526C16.244 45.657 17.3 44.579 17.883 43.325L14.693 43.633L14.55 42.797L18.169 42.555C18.323 42.038 18.422 41.488 18.455 40.916H15.045V40.135H19.401ZM20.919 39.134H21.887V43.039H23.394V43.842H21.887V48.825H20.919V39.134ZM28.7953 40.135C28.7953 42.973 27.8933 45.525 24.4063 47.263L23.8893 46.526C25.6383 45.657 26.6943 44.579 27.2773 43.325L24.0873 43.633L23.9443 42.797L27.5633 42.555C27.7173 42.038 27.8163 41.488 27.8493 40.916H24.4393V40.135H28.7953ZM30.3133 39.134H31.2813V43.039H32.7883V43.842H31.2813V48.825H30.3133V39.134ZM37.5735 39.761C39.6305 39.761 41.1045 40.762 41.1045 42.313C41.1045 43.743 39.8505 44.7 38.0465 44.832V46.812H41.9735V47.593H33.2065V46.812H37.1005V44.832C35.3075 44.689 34.0425 43.743 34.0425 42.313C34.0425 40.762 35.5385 39.761 37.5735 39.761ZM37.5735 40.52C36.0665 40.52 34.9775 41.224 34.9775 42.313C34.9775 43.391 36.0665 44.106 37.5735 44.106C39.0805 44.106 40.1805 43.391 40.1805 42.313C40.1805 41.224 39.0805 40.52 37.5735 40.52ZM42.6008 44.359H46.4838V43.391H43.7448V39.409H50.2788V40.157H44.6908V41.004H50.0258V41.73H44.6908V42.654H50.3338V43.391H47.4408V44.359H51.3348V45.129H42.6008V44.359ZM43.5688 45.943H50.2128V48.836H49.2668V46.713H43.5688V45.943ZM56.362 39.739C58.386 39.739 59.893 40.817 59.893 42.423C59.893 44.051 58.386 45.107 56.362 45.107C54.36 45.107 52.831 44.051 52.831 42.423C52.831 40.817 54.36 39.739 56.362 39.739ZM56.362 40.509C54.866 40.509 53.755 41.279 53.755 42.423C53.755 43.578 54.866 44.337 56.362 44.337C57.869 44.337 58.98 43.578 58.98 42.423C58.98 41.279 57.869 40.509 56.362 40.509ZM51.995 46.757H60.762V47.549H51.995V46.757ZM61.3893 46.867H65.2833V45.096H62.4783V42.06H68.1433V40.619H62.4563V39.849H69.0893V42.819H63.4133V44.326H69.3093V45.096H66.2293V46.867H70.1563V47.648H61.3893V46.867ZM73.3517 40.289H75.4857V39.112H76.4207V40.289H78.5217V41.059H76.4207V41.202C76.4207 42.39 77.3777 43.457 78.8297 43.875L78.3897 44.612C77.2677 44.282 76.4097 43.578 75.9697 42.665C75.5517 43.688 74.6937 44.491 73.5607 44.865L73.0987 44.117C74.5507 43.655 75.4857 42.489 75.4857 41.202V41.059H73.3517V40.289ZM78.2467 41.884H80.1167V39.156H81.0737V45.008H80.1167V42.665H78.2467V41.884ZM77.8727 45.25C79.8747 45.25 81.1067 45.899 81.1067 47.032C81.1067 48.154 79.8747 48.814 77.8727 48.814C75.8597 48.814 74.6387 48.154 74.6387 47.032C74.6387 45.899 75.8597 45.25 77.8727 45.25ZM77.8727 45.998C76.4427 45.998 75.5847 46.383 75.5847 47.032C75.5847 47.692 76.4427 48.077 77.8727 48.077C79.3027 48.077 80.1607 47.692 80.1607 47.032C80.1607 46.383 79.3027 45.998 77.8727 45.998ZM82.746 40.201H84.869V39.112H85.815V40.201H87.916V40.96H85.815V41.103C85.815 42.258 86.783 43.27 88.235 43.666L87.806 44.403C86.673 44.084 85.804 43.402 85.364 42.511C84.935 43.479 84.066 44.227 82.911 44.579L82.471 43.831C83.923 43.413 84.869 42.324 84.869 41.103V40.96H82.746V40.201ZM87.652 41.708H89.5V39.156H90.446V44.502H89.5V42.5H87.652V41.708ZM84.242 44.942H85.177V46.053H89.522V44.942H90.446V48.704H84.242V44.942ZM85.177 46.812V47.923H89.522V46.812H85.177ZM92.1182 39.849H97.3102V40.63H95.1982V40.949C95.1982 42.192 96.0782 43.325 97.5192 43.798L97.0682 44.535C95.9682 44.172 95.1652 43.435 94.7472 42.489C94.3292 43.578 93.4712 44.436 92.3162 44.843L91.8432 44.084C93.3172 43.578 94.2522 42.324 94.2522 40.949V40.63H92.1182V39.849ZM98.4542 39.156H99.4112V41.587H100.83V42.368H99.4112V44.975H98.4542V39.156ZM96.3202 45.228C98.3002 45.228 99.5102 45.877 99.5102 47.01C99.5102 48.154 98.3002 48.814 96.3202 48.814C94.3512 48.814 93.1302 48.154 93.1302 47.01C93.1302 45.877 94.3512 45.228 96.3202 45.228ZM96.3202 45.976C94.9122 45.976 94.0652 46.35 94.0652 47.01C94.0652 47.681 94.9122 48.066 96.3202 48.066C97.7282 48.066 98.5752 47.681 98.5752 47.01C98.5752 46.35 97.7282 45.976 96.3202 45.976ZM18.752 61.261C20.82 61.261 22.14 61.932 22.14 63.043C22.14 64.154 20.82 64.825 18.752 64.825C16.695 64.825 15.386 64.154 15.386 63.043C15.386 61.932 16.695 61.261 18.752 61.261ZM18.752 61.987C17.267 61.987 16.321 62.383 16.321 63.043C16.321 63.692 17.267 64.088 18.752 64.088C20.248 64.088 21.183 63.692 21.183 63.043C21.183 62.383 20.248 61.987 18.752 61.987ZM15.452 55.64H22.052V56.454C22.052 57.235 22.052 58.027 21.788 59.017L20.864 58.918C21.117 57.928 21.117 57.213 21.117 56.454V56.41H15.452V55.64ZM14.429 59.644H17.971V57.807H18.917V59.644H23.152V60.414H14.429V59.644ZM23.8123 60.645H32.5793V61.437H30.3243V64.825H29.3563V61.437H27.0023V64.825H26.0233V61.437H23.8123V60.645ZM28.1683 55.541C30.2033 55.541 31.5673 56.344 31.5673 57.653C31.5673 58.951 30.2033 59.765 28.1683 59.765C26.1443 59.765 24.7693 58.951 24.7693 57.653C24.7693 56.344 26.1443 55.541 28.1683 55.541ZM28.1683 56.3C26.7163 56.3 25.7483 56.828 25.7483 57.653C25.7483 58.489 26.7163 58.995 28.1683 58.995C29.6203 58.995 30.5993 58.489 30.5993 57.653C30.5993 56.828 29.6203 56.3 28.1683 56.3ZM39.7075 55.134H40.6755V59.039H42.1825V59.842H40.6755V64.825H39.7075V55.134ZM38.1675 56.179C38.1675 58.951 36.9245 61.437 33.7785 63.01L33.2395 62.284C35.6815 61.052 36.9905 59.237 37.1995 56.96H33.7125V56.179H38.1675ZM51.4169 55.134H52.3849V59.039H53.8919V59.842H52.3849V64.825H51.4169V55.134ZM49.8769 56.179C49.8769 58.951 48.6339 61.437 45.4879 63.01L44.9489 62.284C47.3909 61.052 48.6999 59.237 48.9089 56.96H45.4219V56.179H49.8769ZM55.4982 55.343H56.4332V57.807H62.0762V58.577H55.4982V55.343ZM54.3212 59.655H63.0662V60.436H54.3212V59.655ZM58.6772 61.272C60.7452 61.272 61.9992 61.91 61.9992 63.032C61.9992 64.154 60.7452 64.803 58.6772 64.803C56.5982 64.803 55.3552 64.154 55.3552 63.032C55.3552 61.91 56.5982 61.272 58.6772 61.272ZM58.6772 62.02C57.1922 62.02 56.3122 62.383 56.3122 63.032C56.3122 63.681 57.1922 64.044 58.6772 64.044C60.1622 64.044 61.0312 63.681 61.0312 63.032C61.0312 62.383 60.1622 62.02 58.6772 62.02ZM63.6824 56.784H65.6074V55.42H66.5424V56.784H68.4564V57.554H63.6824V56.784ZM66.0804 58.17C67.2904 58.17 68.1704 59.094 68.1704 60.392C68.1704 61.701 67.2904 62.614 66.0804 62.614C64.8704 62.614 64.0014 61.701 64.0014 60.392C64.0014 59.094 64.8704 58.17 66.0804 58.17ZM66.0804 58.973C65.3544 58.973 64.8484 59.556 64.8484 60.392C64.8484 61.228 65.3544 61.811 66.0804 61.811C66.7954 61.811 67.3234 61.228 67.3234 60.392C67.3234 59.556 66.7954 58.973 66.0804 58.973ZM70.9974 55.145H71.8994V64.825H70.9974V59.985H69.8204V64.363H68.9294V55.376H69.8204V59.204H70.9974V55.145ZM73.0987 62.812H75.2217V60.238C74.4187 59.798 73.9347 59.116 73.9347 58.236C73.9347 56.718 75.4197 55.739 77.4657 55.739C79.5337 55.739 80.9967 56.718 80.9967 58.236C80.9967 59.105 80.5237 59.787 79.7427 60.216V62.812H81.8657V63.593H73.0987V62.812ZM77.4657 56.487C75.9477 56.487 74.8697 57.18 74.8697 58.236C74.8697 59.303 75.9477 59.985 77.4657 59.985C78.9947 59.985 80.0727 59.303 80.0727 58.236C80.0727 57.18 78.9947 56.487 77.4657 56.487ZM76.1677 62.812H78.7857V60.579C78.3897 60.678 77.9387 60.733 77.4657 60.733C77.0037 60.733 76.5637 60.678 76.1677 60.59V62.812ZM84.44 55.937L84.297 62.02H83.439L83.274 55.937H84.44ZM83.879 62.988C84.22 62.988 84.462 63.23 84.462 63.582C84.462 63.934 84.22 64.187 83.879 64.187C83.527 64.187 83.274 63.934 83.274 63.582C83.274 63.23 83.527 62.988 83.879 62.988Z" fill="#7B8598"/>
<circle cx="145.5" cy="87.5" r="35" fill="#FAFAFA" stroke="#E7EDF8"/>
<path d="M139.529 72C148.106 72 155.059 77.5768 155.059 84.4561C155.059 91.3352 148.106 96.9121 139.529 96.9121C136.342 96.9121 133.379 96.1404 130.914 94.8193L127.995 96.7842C127.582 97.0622 127.023 96.7888 126.988 96.292L126.653 91.4209C124.978 89.4328 124 87.0361 124 84.4561C124 77.5769 130.953 72.0001 139.529 72Z" fill="#C3DFCE" fill-opacity="0.97"/>
<circle cx="133.22" cy="85.1033" r="1.45589" fill="white"/>
<circle cx="139.368" cy="85.1033" r="1.45589" fill="white"/>
<circle cx="145.515" cy="85.1033" r="1.45589" fill="white"/>
<path d="M156.353 84.6172C149.92 84.6173 144.706 88.7997 144.706 93.959C144.706 99.1183 149.92 103.301 156.353 103.301C158.476 103.301 160.465 102.842 162.18 102.046L164.85 103.844C165.159 104.052 165.579 103.847 165.604 103.475L165.891 99.3184C167.219 97.8009 168 95.9537 168 93.959C168 88.7996 162.785 84.6172 156.353 84.6172Z" fill="#013945"/>
<rect x="149.559" y="90.4404" width="13.2648" height="1.61765" rx="0.647061" fill="white"/>
<rect x="149.559" y="93.6758" width="9.70592" height="1.61765" rx="0.647061" fill="white"/>
<rect x="149.559" y="96.9111" width="13.2648" height="1.61765" rx="0.647061" fill="white"/>
</svg>
