<svg width="192" height="136" viewBox="0 0 192 136" fill="none" xmlns="http://www.w3.org/2000/svg">
<rect x="0.355556" y="0.355556" width="191.289" height="135.289" rx="2.26865" fill="white"/>
<rect x="0.355556" y="0.355556" width="191.289" height="135.289" rx="2.26865" stroke="#E7EDF8" stroke-width="0.711111"/>
<path d="M21.1 20.0687H18.7625V18.775H21.1V20.0687ZM21.0625 22.9H18.7063V21.6125H21.0625V22.9ZM24.1938 27.15H22.6938V15.7625H24.1938V27.15ZM21.8188 26.65H20.3125V16.0312H21.8188V26.65ZM19.2875 17.125C19.2875 18.2458 19.1542 19.2646 18.8875 20.1812C18.6208 21.0979 18.1792 21.9417 17.5625 22.7125C16.95 23.4792 16.1292 24.1687 15.1 24.7812L14.1625 23.6625C15.0292 23.15 15.7229 22.5896 16.2438 21.9812C16.7688 21.3687 17.15 20.6937 17.3875 19.9562C17.6292 19.2187 17.75 18.3833 17.75 17.45V17.125H19.2875ZM18.2813 18.4062H14.825V17.125H18.2813V18.4062ZM29.325 17.7625C29.325 18.4542 29.2042 19.0958 28.9625 19.6875C28.725 20.2792 28.3667 20.7917 27.8875 21.225C27.4083 21.6583 26.8208 21.9812 26.125 22.1937L25.325 20.9625C25.925 20.7792 26.4271 20.525 26.8313 20.2C27.2354 19.8708 27.5375 19.4979 27.7375 19.0812C27.9375 18.6646 28.0375 18.225 28.0375 17.7625V17.1375H29.325V17.7625ZM29.6625 17.7625C29.6625 18.1833 29.7563 18.5896 29.9438 18.9812C30.1313 19.3687 30.4208 19.7167 30.8125 20.025C31.2042 20.3333 31.6917 20.5729 32.275 20.7437L31.5313 21.9812C30.8313 21.7812 30.2438 21.475 29.7688 21.0625C29.2979 20.6458 28.9458 20.1562 28.7125 19.5937C28.4792 19.0312 28.3625 18.4208 28.3625 17.7625V17.1375H29.6625V17.7625ZM31.95 17.9875H25.7313V16.6812H31.95V17.9875ZM29.6438 24.175H28.05V21.7125H29.6438V24.175ZM35.9813 21.5937H33.95V20.2625H35.9813V21.5937ZM34.4375 27.15H32.8438V15.7625H34.4375V27.15ZM25.2688 23.6937C26.3021 23.6937 27.1479 23.6896 27.8063 23.6812C28.4646 23.6687 29.1917 23.6417 29.9875 23.6C30.7833 23.5542 31.5333 23.4812 32.2375 23.3812L32.3375 24.5375C31.6042 24.6708 30.8438 24.7708 30.0563 24.8375C29.2729 24.9042 28.5688 24.9437 27.9438 24.9562C27.3188 24.9687 26.4958 24.9792 25.475 24.9875L25.2688 23.6937ZM44.85 20.0812H41.8875V18.8H44.85V20.0812ZM46.05 24.175H44.4625V15.7875H46.05V24.175ZM46.2938 26.9563H38.475V25.6687H46.2938V26.9563ZM40.0875 26.4H38.475V23.3375H40.0875V26.4ZM38.55 18.2687H40.7875V16.5312H42.3688V22.3812H36.9438V16.5312H38.55V18.2687ZM40.7875 21.1187V19.4875H38.55V21.1187H40.7875ZM57.4375 18.4875H47.9688V17.2125H57.4375V18.4875ZM57.9313 25.9937H47.5313V24.7062H57.9313V25.9937ZM53.4875 25.2062H51.9063V23.175H53.4875V25.2062ZM52.7 18.9812C53.4833 18.9771 54.1667 19.0646 54.75 19.2437C55.3375 19.4187 55.7875 19.6729 56.1 20.0062C56.4167 20.3354 56.575 20.7312 56.575 21.1937C56.575 21.6562 56.4167 22.0562 56.1 22.3937C55.7875 22.7271 55.3396 22.9854 54.7563 23.1687C54.1771 23.3479 53.4917 23.4396 52.7 23.4437C51.9042 23.4396 51.2125 23.3479 50.625 23.1687C50.0417 22.9896 49.5938 22.7312 49.2813 22.3937C48.9688 22.0562 48.8125 21.6562 48.8125 21.1937C48.8125 20.7312 48.9688 20.3354 49.2813 20.0062C49.5938 19.6729 50.0417 19.4187 50.625 19.2437C51.2125 19.0646 51.9042 18.9771 52.7 18.9812ZM52.7 20.225C52.2 20.225 51.7833 20.2604 51.45 20.3312C51.1208 20.3979 50.8708 20.5042 50.7 20.65C50.5333 20.7917 50.45 20.9729 50.45 21.1937C50.45 21.4104 50.5333 21.5917 50.7 21.7375C50.8708 21.8792 51.1208 21.9854 51.45 22.0562C51.7833 22.1271 52.2 22.1646 52.7 22.1687C53.1917 22.1646 53.6021 22.1271 53.9313 22.0562C54.2604 21.9854 54.5104 21.8792 54.6813 21.7375C54.8521 21.5917 54.9375 21.4104 54.9375 21.1937C54.9375 20.9729 54.8521 20.7917 54.6813 20.65C54.5104 20.5042 54.2583 20.3979 53.925 20.3312C53.5917 20.2604 53.1833 20.225 52.7 20.225ZM53.4875 18.0062H51.9063V15.8875H53.4875V18.0062Z" fill="black"/>
<path d="M14.803 40.113H19.269V46.394H14.803V40.113ZM18.334 40.872H15.738V45.624H18.334V40.872ZM20.93 39.156H21.887V42.995H23.449V43.787H21.887V48.836H20.93V39.156ZM28.1793 39.365C30.2803 39.365 31.6003 40.047 31.6003 41.202C31.6003 42.357 30.2803 43.028 28.1793 43.028C26.0783 43.028 24.7583 42.357 24.7583 41.202C24.7583 40.047 26.0783 39.365 28.1793 39.365ZM28.1793 40.113C26.6723 40.113 25.7373 40.498 25.7373 41.202C25.7373 41.884 26.6723 42.28 28.1793 42.28C29.6863 42.28 30.6213 41.884 30.6213 41.202C30.6213 40.498 29.6863 40.113 28.1793 40.113ZM24.8793 45.514H31.4903V48.704H24.8793V45.514ZM30.5553 46.273H25.8143V47.934H30.5553V46.273ZM23.8123 43.831H32.5573V44.59H23.8123V43.831ZM37.5735 39.321C39.7185 39.321 40.9945 39.904 40.9945 40.982C40.9945 42.071 39.7185 42.665 37.5735 42.665C35.4395 42.665 34.1525 42.071 34.1525 40.982C34.1525 39.904 35.4395 39.321 37.5735 39.321ZM37.5735 40.025C36.0225 40.025 35.1425 40.377 35.1425 40.982C35.1425 41.609 36.0225 41.95 37.5735 41.95C39.1245 41.95 40.0155 41.609 40.0155 40.982C40.0155 40.377 39.1245 40.025 37.5735 40.025ZM33.2065 43.281H41.9515V44.051H33.2065V43.281ZM34.2515 44.832H40.8295V47.054H35.2085V47.989H41.1265V48.726H34.2845V46.372H39.9055V45.569H34.2515V44.832ZM51.7249 39.156H52.6709V42.896H53.9029V43.699H52.6709V48.836H51.7249V39.156ZM45.0809 40.058H45.8949V42.489H46.9839V40.058H47.7759V46.493H45.0809V40.058ZM45.8949 43.259V45.723H46.9839V43.259H45.8949ZM48.2709 40.058H49.0739V42.489H50.1519V40.058H50.9439V46.493H48.2709V40.058ZM49.0739 43.259V45.723H50.1519V43.259H49.0739ZM54.3102 46.834H63.0772V47.626H54.3102V46.834ZM55.3772 39.871H62.0102V42.841H56.3342V44.348H62.2302V45.129H55.3992V42.082H61.0642V40.652H55.3772V39.871ZM71.0304 39.145H71.9434V48.825H71.0304V39.145ZM69.0064 39.398H69.9084V48.341H69.0064V43.842H67.0704C66.4984 44.964 65.5854 45.954 64.2324 46.757L63.6824 46.064C65.7504 44.843 66.7404 43.16 66.9054 41.147H64.1114V40.366H67.8514C67.8514 41.312 67.7194 42.225 67.4114 43.072H69.0064V39.398ZM80.5509 41.796H82.4319V39.156H83.3889V46.229H82.4319V42.577H80.5509V41.796ZM77.1739 45.624H78.1309V47.846H83.6529V48.616H77.1739V45.624ZM75.7109 39.915H80.8919V40.696H78.8019V41.114C78.8019 42.346 79.7149 43.567 81.1339 44.062L80.6499 44.81C79.5719 44.414 78.7579 43.622 78.3399 42.643C77.9219 43.732 77.0749 44.612 75.9199 45.03L75.4249 44.271C76.8769 43.765 77.8449 42.478 77.8449 41.125V40.696H75.7109V39.915ZM91.3201 39.156H92.2771V43.105H93.8391V43.897H92.2771V48.836H91.3201V39.156ZM84.7531 40.685H87.1511V39.277H88.1191V40.685H90.4621V41.455H84.7531V40.685ZM87.6461 42.225C89.0211 42.225 90.0221 43.149 90.0221 44.458C90.0221 45.778 89.0211 46.691 87.6461 46.691C86.2821 46.691 85.2811 45.778 85.2811 44.458C85.2811 43.149 86.2821 42.225 87.6461 42.225ZM87.6461 43.006C86.7991 43.006 86.1941 43.611 86.1941 44.458C86.1941 45.316 86.7991 45.899 87.6461 45.899C88.4931 45.899 89.0981 45.316 89.0981 44.458C89.0981 43.611 88.4931 43.006 87.6461 43.006ZM95.1264 40.102H101.935V41.048C101.935 42.247 101.935 43.578 101.583 45.547L100.615 45.437C100.978 43.578 100.978 42.214 100.978 41.048V40.883H95.1264V40.102ZM94.2024 46.702H97.5684V43.259H98.5144V46.702H102.958V47.494H94.2024V46.702ZM104.4 39.629H111.506V40.41H110.087V42.522H111.473V43.292H104.444V42.522H105.83V40.41H104.4V39.629ZM103.597 44.293H112.342V45.063H103.597V44.293ZM104.719 45.921H105.665V47.846H111.374V48.627H104.719V45.921ZM106.787 42.522H109.141V40.41H106.787V42.522ZM14.715 56.135H20.127V56.927H17.894V58.06C17.894 59.699 19.016 61.36 20.457 61.976L19.918 62.735C18.807 62.218 17.883 61.14 17.432 59.831C16.981 61.228 16.068 62.427 14.946 62.977L14.396 62.218C15.815 61.547 16.937 59.732 16.937 58.06V56.927H14.715V56.135ZM21.381 55.156H22.338V64.836H21.381V55.156ZM30.7973 55.156H31.7543V62.207H30.7973V55.156ZM25.5173 61.492H26.4633V63.846H32.0403V64.616H25.5173V61.492ZM26.5513 55.816C28.0033 55.816 29.0923 56.806 29.0923 58.214C29.0923 59.611 28.0033 60.601 26.5513 60.601C25.1103 60.601 24.0103 59.611 24.0103 58.214C24.0103 56.806 25.1103 55.816 26.5513 55.816ZM26.5513 56.641C25.6383 56.641 24.9453 57.279 24.9453 58.214C24.9453 59.127 25.6383 59.765 26.5513 59.765C27.4643 59.765 28.1683 59.127 28.1683 58.214C28.1683 57.279 27.4643 56.641 26.5513 56.641ZM33.2175 59.16H41.9625V59.93H33.2175V59.16ZM34.3725 55.453H40.8185V56.223H35.3075V57.653H40.9175V58.412H34.3725V55.453ZM34.2515 60.733H40.8295V63.032H35.2085V63.967H41.1265V64.726H34.2845V62.339H39.9055V61.47H34.2515V60.733ZM46.9678 55.321C49.1128 55.321 50.3888 55.904 50.3888 56.982C50.3888 58.071 49.1128 58.665 46.9678 58.665C44.8338 58.665 43.5468 58.071 43.5468 56.982C43.5468 55.904 44.8338 55.321 46.9678 55.321ZM46.9678 56.025C45.4168 56.025 44.5368 56.377 44.5368 56.982C44.5368 57.609 45.4168 57.95 46.9678 57.95C48.5188 57.95 49.4098 57.609 49.4098 56.982C49.4098 56.377 48.5188 56.025 46.9678 56.025ZM42.6008 59.281H51.3458V60.051H42.6008V59.281ZM43.6458 60.832H50.2238V63.054H44.6028V63.989H50.5208V64.726H43.6788V62.372H49.2998V61.569H43.6458V60.832ZM57.4562 55.596C58.8972 55.596 59.9422 56.41 59.9422 57.598C59.9422 58.775 58.8972 59.6 57.4562 59.6C56.0262 59.6 54.9812 58.775 54.9812 57.598C54.9812 56.41 56.0262 55.596 57.4562 55.596ZM57.4562 56.377C56.5542 56.377 55.8942 56.872 55.8942 57.598C55.8942 58.324 56.5542 58.808 57.4562 58.808C58.3692 58.808 59.0292 58.324 59.0292 57.598C59.0292 56.872 58.3692 56.377 57.4562 56.377ZM61.3062 55.145H62.2522V64.836H61.3062V55.145ZM54.2882 60.381C56.0702 60.381 58.5122 60.359 60.6352 60.029L60.7012 60.744C59.8102 60.909 58.8862 61.008 57.9842 61.074V64.528H57.0272V61.129C56.0812 61.173 55.1902 61.184 54.4092 61.184L54.2882 60.381ZM63.6824 56.784H65.6074V55.42H66.5424V56.784H68.4564V57.554H63.6824V56.784ZM66.0804 58.17C67.2904 58.17 68.1704 59.094 68.1704 60.392C68.1704 61.701 67.2904 62.614 66.0804 62.614C64.8704 62.614 64.0014 61.701 64.0014 60.392C64.0014 59.094 64.8704 58.17 66.0804 58.17ZM66.0804 58.973C65.3544 58.973 64.8484 59.556 64.8484 60.392C64.8484 61.228 65.3544 61.811 66.0804 61.811C66.7954 61.811 67.3234 61.228 67.3234 60.392C67.3234 59.556 66.7954 58.973 66.0804 58.973ZM70.9974 55.145H71.8994V64.825H70.9974V59.985H69.8204V64.363H68.9294V55.376H69.8204V59.204H70.9974V55.145ZM82.7179 55.145H83.6309V64.825H82.7179V55.145ZM79.2309 58.61H80.7819V55.365H81.6729V64.341H80.7819V59.391H79.2309V58.61ZM75.5459 56.256H79.9569V57.048H78.2739V57.862C78.2739 59.534 78.9669 61.206 80.2979 61.987L79.7259 62.68C78.8019 62.119 78.1639 61.107 77.8229 59.908C77.4819 61.206 76.8219 62.306 75.8649 62.911L75.2819 62.207C76.6239 61.382 77.3499 59.622 77.3499 57.862V57.048H75.5459V56.256ZM89.1421 61.261C91.2101 61.261 92.5301 61.932 92.5301 63.043C92.5301 64.154 91.2101 64.825 89.1421 64.825C87.0851 64.825 85.7761 64.154 85.7761 63.043C85.7761 61.932 87.0851 61.261 89.1421 61.261ZM89.1421 61.987C87.6571 61.987 86.7111 62.383 86.7111 63.043C86.7111 63.692 87.6571 64.088 89.1421 64.088C90.6381 64.088 91.5731 63.692 91.5731 63.043C91.5731 62.383 90.6381 61.987 89.1421 61.987ZM85.8421 55.64H92.4421V56.454C92.4421 57.235 92.4421 58.027 92.1781 59.017L91.2541 58.918C91.5071 57.928 91.5071 57.213 91.5071 56.454V56.41H85.8421V55.64ZM84.8191 59.644H88.3611V57.807H89.3071V59.644H93.5421V60.414H84.8191V59.644ZM96.1494 55.937L96.0064 62.02H95.1484L94.9834 55.937H96.1494ZM95.5884 62.988C95.9294 62.988 96.1714 63.23 96.1714 63.582C96.1714 63.934 95.9294 64.187 95.5884 64.187C95.2364 64.187 94.9834 63.934 94.9834 63.582C94.9834 63.23 95.2364 62.988 95.5884 62.988Z" fill="#7B8598"/>
<circle cx="145.5" cy="87.5" r="35" fill="#FAFAFA" stroke="#E7EDF8"/>
<rect x="120" y="81.3447" width="32.8438" height="20.9985" rx="1.61527" transform="rotate(-23.9731 120 81.3447)" fill="#013945"/>
<rect x="121.969" y="85.7725" width="32.8438" height="2.69211" transform="rotate(-23.9731 121.969 85.7725)" fill="white"/>
<rect x="134.156" y="80.2275" width="32.8438" height="20.9985" rx="1.61527" fill="#CFE5D8"/>
<rect x="137.925" y="90.457" width="5.38423" height="3.23054" rx="0.414171" fill="#013945"/>
<rect x="137.925" y="95.3037" width="17.768" height="2.69211" rx="0.414171" fill="#013945"/>
<circle cx="159.731" cy="86.419" r="2.4229" fill="#013945"/>
<circle cx="162.423" cy="86.419" r="2.4229" fill="#013945"/>
</svg>
