<svg width="192" height="136" viewBox="0 0 192 136" fill="none" xmlns="http://www.w3.org/2000/svg">
<rect x="0.355556" y="0.355556" width="191.289" height="135.289" rx="2.26865" fill="white"/>
<rect x="0.355556" y="0.355556" width="191.289" height="135.289" rx="2.26865" stroke="#E7EDF8" stroke-width="0.711111"/>
<path d="M18.2188 18.1C18.2188 18.7667 18.1 19.3875 17.8625 19.9625C17.625 20.5333 17.2646 21.0292 16.7813 21.45C16.3021 21.8667 15.7083 22.1729 15 22.3687L14.2438 21.1312C14.8396 20.9729 15.3396 20.7375 15.7438 20.425C16.1521 20.1083 16.4542 19.7521 16.65 19.3562C16.8458 18.9604 16.9438 18.5417 16.9438 18.1V17.6875H18.2188V18.1ZM18.525 18.1C18.525 18.5042 18.6208 18.8917 18.8125 19.2625C19.0083 19.6292 19.3063 19.9604 19.7063 20.2562C20.1063 20.5479 20.6021 20.775 21.1938 20.9375L20.4625 22.1687C19.7542 21.9812 19.1583 21.6875 18.675 21.2875C18.1917 20.8833 17.8292 20.4083 17.5875 19.8625C17.35 19.3167 17.2313 18.7292 17.2313 18.1V17.6875H18.525V18.1ZM20.8188 18.1687H14.65V16.9125H20.8188V18.1687ZM18.5438 17.4625H16.9438V15.725H18.5438V17.4625ZM23.3625 22.4375H21.7688V15.7625H23.3625V22.4375ZM24.9 19.75H22.9125V18.4437H24.9V19.75ZM23.3625 27.025H15.925V22.9125H23.3625V27.025ZM17.5063 25.7437H21.7875V24.1687H17.5063V25.7437ZM33.6188 19.2H31.2625V17.8937H33.6188V19.2ZM29.3563 17.45C29.3563 18.2125 29.2375 18.9187 29 19.5687C28.7667 20.2187 28.4125 20.7875 27.9375 21.275C27.4625 21.7583 26.8771 22.1271 26.1813 22.3812L25.3188 21.1C25.9396 20.9 26.4521 20.6167 26.8563 20.25C27.2646 19.8792 27.5646 19.4562 27.7563 18.9812C27.9521 18.5021 28.05 17.9917 28.05 17.45V16.3625H29.3563V17.45ZM29.6625 17.5437C29.6625 18.0354 29.7542 18.5021 29.9375 18.9437C30.1208 19.3812 30.4063 19.7729 30.7938 20.1187C31.1813 20.4604 31.6667 20.725 32.25 20.9125L31.4063 22.1812C30.7396 21.9479 30.1792 21.6042 29.725 21.15C29.2708 20.6917 28.9313 20.1542 28.7063 19.5375C28.4854 18.9208 28.375 18.2562 28.375 17.5437V16.3625H29.6625V17.5437ZM34.9875 27.15H33.4V24.3187H27.175V23.0562H34.9875V27.15ZM34.9875 22.5437H33.4V15.7625H34.9875V22.5437ZM43.1125 16.5312C43.7083 16.5312 44.2458 16.6521 44.725 16.8937C45.2042 17.1312 45.5792 17.4625 45.85 17.8875C46.125 18.3083 46.2625 18.7875 46.2625 19.325C46.2625 19.8625 46.125 20.3437 45.85 20.7687C45.5792 21.1896 45.2042 21.5208 44.725 21.7625C44.25 22 43.7125 22.1187 43.1125 22.1187C42.5208 22.1187 41.9833 22 41.5 21.7625C41.0167 21.5208 40.6375 21.1896 40.3625 20.7687C40.0875 20.3437 39.95 19.8625 39.95 19.325C39.95 18.7875 40.0875 18.3083 40.3625 17.8875C40.6375 17.4625 41.0167 17.1312 41.5 16.8937C41.9833 16.6521 42.5208 16.5312 43.1125 16.5312ZM43.1125 17.9062C42.8083 17.9062 42.5375 17.9625 42.3 18.075C42.0625 18.1875 41.875 18.3521 41.7375 18.5687C41.6 18.7812 41.5312 19.0333 41.5312 19.325C41.5312 19.6208 41.6 19.875 41.7375 20.0875C41.875 20.2958 42.0625 20.4583 42.3 20.575C42.5375 20.6875 42.8083 20.7437 43.1125 20.7437C43.4167 20.7437 43.6896 20.6875 43.9312 20.575C44.1771 20.4583 44.3667 20.2958 44.5 20.0875C44.6375 19.875 44.7062 19.6208 44.7062 19.325C44.7062 19.0333 44.6375 18.7812 44.5 18.5687C44.3667 18.3521 44.1771 18.1875 43.9312 18.075C43.6896 17.9625 43.4167 17.9062 43.1125 17.9062ZM48.9812 27.1813H47.4V15.7625H48.9812V27.1813ZM39.475 23.5562C40.3917 23.5521 41.225 23.5417 41.975 23.525C42.725 23.5083 43.5208 23.475 44.3625 23.425C45.2083 23.3708 46.0062 23.2937 46.7562 23.1937L46.8687 24.3375C46.0979 24.4875 45.2937 24.6 44.4562 24.675C43.6187 24.75 42.8312 24.7979 42.0937 24.8187C41.3604 24.8396 40.55 24.85 39.6625 24.85L39.475 23.5562ZM54.375 18.3437C54.375 19.3062 54.2583 20.2125 54.025 21.0625C53.7917 21.9125 53.4396 22.6646 52.9688 23.3187C52.4979 23.9729 51.9146 24.4708 51.2188 24.8125L50.2375 23.5187C50.8667 23.2312 51.3917 22.8187 51.8125 22.2812C52.2375 21.7396 52.5542 21.1312 52.7625 20.4562C52.975 19.7812 53.0813 19.0771 53.0813 18.3437V16.6437H54.375V18.3437ZM54.6688 18.3437C54.6688 19.0521 54.7688 19.7292 54.9688 20.375C55.1688 21.0208 55.4708 21.6021 55.875 22.1187C56.2833 22.6354 56.7792 23.0375 57.3625 23.325L56.4 24.5937C55.7333 24.2562 55.175 23.7729 54.725 23.1437C54.275 22.5146 53.9417 21.7917 53.725 20.975C53.5083 20.1583 53.4 19.2812 53.4 18.3437V16.6437H54.6688V18.3437ZM59.4625 27.15H57.8625V15.7625H59.4625V27.15ZM61.15 21.5125H59.1125V20.1562H61.15V21.5125ZM73.35 20.0187H70.65V18.725H73.35V20.0187ZM74.1 24.0937H72.5125V15.7875H74.1V24.0937ZM74.375 26.9563H66.55V25.6687H74.375V26.9563ZM68.15 26.4188H66.55V23.3625H68.15V26.4188ZM68.4812 17.9937C68.4812 18.7271 68.3625 19.4146 68.125 20.0562C67.8917 20.6979 67.5333 21.2604 67.05 21.7437C66.5708 22.2229 65.9792 22.5812 65.275 22.8187L64.45 21.5312C65.05 21.3396 65.5542 21.0604 65.9625 20.6937C66.375 20.3229 66.6812 19.9083 66.8812 19.45C67.0812 18.9875 67.1812 18.5021 67.1812 17.9937V17.2562H68.4812V17.9937ZM68.8062 18.0062C68.8062 18.4687 68.9021 18.9167 69.0937 19.35C69.2854 19.7792 69.575 20.1687 69.9625 20.5187C70.3542 20.8687 70.8417 21.1375 71.425 21.325L70.6375 22.5875C69.95 22.3625 69.3708 22.0187 68.9 21.5562C68.4333 21.0937 68.0854 20.5583 67.8562 19.95C67.6271 19.3417 67.5125 18.6937 67.5125 18.0062V17.2562H68.8062V18.0062ZM71.075 17.8312H64.9V16.55H71.075V17.8312ZM76.925 19.9312C78.15 19.9312 79.1354 19.9042 79.8812 19.85C80.6271 19.7958 81.3562 19.6979 82.0687 19.5562L82.2437 20.7875C81.7687 20.8958 81.2812 20.9792 80.7812 21.0375C80.2854 21.0917 79.7479 21.1271 79.1687 21.1437C78.5896 21.1604 77.8417 21.1687 76.925 21.1687H75.975V19.9312H76.925ZM81.0937 17.6187H77.5562V20.625H75.975V16.3687H81.0937V17.6187ZM84.6 21.4375H83.0062V15.7625H84.6V21.4375ZM86.1375 19.225H84.15V17.9312H86.1375V19.225ZM84.6 25.0312H78.6437V26.4063H77.075V23.8437H83.0125V23.1625H77.0562V21.8937H84.6V25.0312ZM84.9312 27.025H77.075V25.7437H84.9312V27.025Z" fill="black"/>
<path d="M14.693 40.256H16.816V39.112H17.751V40.256H19.863V41.026H17.751V41.147C17.751 42.302 18.664 43.358 20.105 43.776L19.665 44.524C18.554 44.183 17.718 43.479 17.3 42.577C16.871 43.567 16.013 44.337 14.869 44.7L14.418 43.952C15.87 43.512 16.816 42.401 16.816 41.147V41.026H14.693V40.256ZM20.985 39.156H21.942V41.576H23.361V42.368H21.942V44.865H20.985V39.156ZM15.837 45.316H21.942V48.704H15.837V45.316ZM21.007 46.075H16.772V47.934H21.007V46.075ZM28.7623 41.147H30.8193V39.156H31.7763V44.876H30.8193V41.939H28.7623V41.147ZM26.1993 39.64H27.1453V40.685C27.1453 42.005 28.0583 43.226 29.4773 43.732L28.9603 44.48C27.9043 44.084 27.1013 43.281 26.6833 42.28C26.2653 43.38 25.4403 44.249 24.2963 44.678L23.8123 43.919C25.2753 43.391 26.1993 42.093 26.1993 40.641V39.64ZM25.3083 45.393H31.7763V48.836H30.8193V46.163H25.3083V45.393ZM36.3305 39.838C37.8375 39.838 38.9265 40.784 38.9265 42.137C38.9265 43.501 37.8375 44.436 36.3305 44.436C34.8125 44.436 33.7235 43.501 33.7235 42.137C33.7235 40.784 34.8125 39.838 36.3305 39.838ZM36.3305 40.663C35.3625 40.663 34.6475 41.257 34.6475 42.137C34.6475 43.006 35.3625 43.611 36.3305 43.611C37.2875 43.611 38.0025 43.006 38.0025 42.137C38.0025 41.257 37.2875 40.663 36.3305 40.663ZM40.1585 39.134H41.1045V48.847H40.1585V39.134ZM33.2505 45.943C34.9995 45.943 37.4415 45.943 39.5315 45.613L39.6085 46.317C37.4525 46.735 35.0875 46.746 33.3715 46.746L33.2505 45.943ZM44.9548 39.981H45.8898V41.664C45.8898 43.369 46.9128 45.14 48.3208 45.833L47.7378 46.581C46.6928 46.031 45.8568 44.931 45.4278 43.611C44.9988 45.019 44.1298 46.196 43.0408 46.779L42.4578 46.009C43.8988 45.294 44.9548 43.435 44.9548 41.664V39.981ZM49.1018 39.156H50.0588V43.039H51.6318V43.853H50.0588V48.836H49.1018V39.156ZM51.995 43.633H60.762V44.348H51.995V43.633ZM53.029 45.085H59.673V47.186H53.997V48.033H59.97V48.715H53.051V46.537H58.738V45.767H53.029V45.085ZM53.106 39.42H59.64V41.477H54.052V42.258H59.816V42.951H53.128V40.839H58.705V40.102H53.106V39.42ZM64.2434 40.08H68.7094V46.416H64.2434V40.08ZM67.7964 40.85H65.1784V45.646H67.7964V40.85ZM70.6784 39.134H71.6354V48.847H70.6784V39.134ZM80.0947 39.134H81.0517V48.847H80.0947V39.134ZM73.6267 40.047H78.1147V43.534H74.6057V45.723C76.1897 45.723 77.5647 45.646 79.2147 45.382L79.3137 46.163C77.5867 46.449 76.1347 46.504 74.4627 46.504H73.6487V42.764H77.1577V40.817H73.6267V40.047ZM20.996 55.156H21.953V57.455H23.361V58.258H21.953V60.81H20.996V55.156ZM14.814 55.684H15.76V57.136H18.378V55.684H19.313V60.227H14.814V55.684ZM15.76 57.895V59.446H18.378V57.895H15.76ZM15.881 61.327H22.03V62.097H16.827V63.923H22.217V64.704H15.881V61.327ZM26.3973 55.882C27.8163 55.882 28.8283 57.191 28.8283 59.27C28.8283 61.338 27.8163 62.658 26.3973 62.658C24.9673 62.658 23.9443 61.338 23.9443 59.27C23.9443 57.191 24.9673 55.882 26.3973 55.882ZM26.3973 56.74C25.4843 56.74 24.8573 57.719 24.8573 59.27C24.8573 60.821 25.4843 61.811 26.3973 61.811C27.2993 61.811 27.9263 60.821 27.9263 59.27C27.9263 57.719 27.2993 56.74 26.3973 56.74ZM30.3243 55.156H31.2813V58.995H32.8433V59.787H31.2813V64.836H30.3243V55.156ZM34.3615 55.299H35.3075V56.168H39.8615V55.299H40.8185V58.5H38.0465V59.402H41.9515V60.15H33.2065V59.402H37.0895V58.5H34.3615V55.299ZM35.3075 56.894V57.763H39.8615V56.894H35.3075ZM34.2515 60.92H40.8295V63.109H35.2085V63.989H41.1265V64.726H34.2845V62.438H39.9055V61.635H34.2515V60.92ZM48.7989 55.486H49.7999V56.025C49.7999 57.334 51.4389 58.544 53.2539 58.808L52.8689 59.567C51.3399 59.314 49.9319 58.489 49.3049 57.334C48.6889 58.5 47.2809 59.314 45.7299 59.567L45.3449 58.808C47.1709 58.544 48.7989 57.367 48.7989 56.025V55.486ZM44.9159 60.579H53.6719V61.36H49.7449V64.836H48.7989V61.36H44.9159V60.579ZM59.0123 61.107H59.9253V61.591C59.9253 62.438 60.3543 63.329 61.2343 63.857C62.1363 63.285 62.5873 62.339 62.5873 61.591V61.107H63.5113V61.591C63.5113 62.592 64.2043 63.571 65.4363 63.989L64.9743 64.693C64.0283 64.352 63.3683 63.703 63.0273 62.9C62.7303 63.681 62.1583 64.407 61.2673 64.792C60.3433 64.44 59.7603 63.736 59.4633 62.944C59.1113 63.703 58.4733 64.352 57.5603 64.693L57.0873 63.989C58.3193 63.549 59.0123 62.515 59.0123 61.591V61.107ZM63.6213 55.156H64.5783V60.678H63.6213V55.156ZM59.3753 55.706C60.8493 55.706 61.9163 56.641 61.9163 57.983C61.9163 59.314 60.8493 60.227 59.3753 60.227C57.9013 60.227 56.8343 59.314 56.8343 57.983C56.8343 56.641 57.9013 55.706 59.3753 55.706ZM59.3753 56.509C58.4513 56.509 57.7693 57.103 57.7693 57.983C57.7693 58.863 58.4513 59.446 59.3753 59.446C60.3103 59.446 60.9813 58.863 60.9813 57.983C60.9813 57.103 60.3103 56.509 59.3753 56.509ZM68.6046 55.882C69.9026 55.882 70.8706 57.004 71.0026 58.819H73.0596V55.134H73.9946V64.847H73.0596V59.578H71.0136C70.9256 61.47 69.9466 62.658 68.6046 62.658C67.1856 62.658 66.1846 61.338 66.1846 59.27C66.1846 57.191 67.1856 55.882 68.6046 55.882ZM68.6046 56.74C67.7026 56.74 67.0866 57.719 67.0866 59.27C67.0866 60.821 67.7026 61.811 68.6046 61.811C69.5066 61.811 70.1226 60.821 70.1226 59.27C70.1226 57.719 69.5066 56.74 68.6046 56.74ZM75.4139 62.812H77.5369V60.238C76.7339 59.798 76.2499 59.116 76.2499 58.236C76.2499 56.718 77.7349 55.739 79.7809 55.739C81.8489 55.739 83.3119 56.718 83.3119 58.236C83.3119 59.105 82.8389 59.787 82.0579 60.216V62.812H84.1809V63.593H75.4139V62.812ZM79.7809 56.487C78.2629 56.487 77.1849 57.18 77.1849 58.236C77.1849 59.303 78.2629 59.985 79.7809 59.985C81.3099 59.985 82.3879 59.303 82.3879 58.236C82.3879 57.18 81.3099 56.487 79.7809 56.487ZM78.4829 62.812H81.1009V60.579C80.7049 60.678 80.2539 60.733 79.7809 60.733C79.3189 60.733 78.8789 60.678 78.4829 60.59V62.812ZM86.7551 55.937L86.6121 62.02H85.7541L85.5891 55.937H86.7551ZM86.1941 62.988C86.5351 62.988 86.7771 63.23 86.7771 63.582C86.7771 63.934 86.5351 64.187 86.1941 64.187C85.8421 64.187 85.5891 63.934 85.5891 63.582C85.5891 63.23 85.8421 62.988 86.1941 62.988Z" fill="#7B8598"/>
<circle cx="145.5" cy="87.5" r="35" fill="#FAFAFA" stroke="#E7EDF8"/>
<circle cx="141.89" cy="81.5067" r="9.09945" fill="#C3DFCE" fill-opacity="0.97"/>
<path d="M154.78 105.91C155.885 105.91 156.795 105.01 156.638 103.917C156.464 102.701 156.132 101.509 155.647 100.37C154.898 98.6138 153.802 97.0179 152.419 95.6736C151.036 94.3294 149.395 93.2631 147.588 92.5355C145.782 91.808 143.845 91.4336 141.89 91.4336C139.935 91.4336 137.998 91.808 136.192 92.5355C134.385 93.2631 132.744 94.3294 131.361 95.6736C129.979 97.0179 128.882 98.6138 128.133 100.37C127.648 101.509 127.316 102.701 127.142 103.917C126.985 105.01 127.895 105.91 129 105.91L141.89 105.91H154.78Z" fill="#C3DFCE" fill-opacity="0.97"/>
<path d="M156.837 64.5297C161.421 65.3746 164.588 69.0408 163.911 72.7179C163.233 76.3948 158.967 78.6904 154.383 77.8455C152.87 77.5666 151.512 76.9787 150.395 76.1861L148.256 77.1166C148.008 77.2245 147.736 77.0231 147.766 76.7542L148.109 73.7539C147.362 72.4982 147.047 71.0797 147.309 69.6584C147.987 65.9813 152.253 63.685 156.837 64.5297Z" fill="#013945"/>
<path d="M152.844 69.9801L154.258 73.3165L160.232 68.6558" stroke="white" stroke-width="1.2" stroke-linecap="round" stroke-linejoin="round"/>
</svg>
