<svg width="192" height="136" viewBox="0 0 192 136" fill="none" xmlns="http://www.w3.org/2000/svg">
<rect x="0.355556" y="0.355556" width="191.289" height="135.289" rx="2.26865" fill="white"/>
<rect x="0.355556" y="0.355556" width="191.289" height="135.289" rx="2.26865" stroke="#E7EDF8" stroke-width="0.711111"/>
<path d="M26.1688 27.15H24.6688V15.7625H26.1688V27.15ZM22.7688 20.9625H20.85V19.6812H22.7688V20.9625ZM23.8438 26.6313H22.35V15.9625H23.8438V26.6313ZM19.6063 18.8187C19.6063 19.7104 19.5146 20.5562 19.3313 21.3562C19.1521 22.1521 18.875 22.8708 18.5 23.5125C18.125 24.15 17.6458 24.6479 17.0625 25.0062L16.1 23.8312C16.6375 23.4979 17.0771 23.0667 17.4188 22.5375C17.7646 22.0042 18.0146 21.4229 18.1688 20.7937C18.3229 20.1646 18.4 19.5062 18.4 18.8187V17.625H19.6063V18.8187ZM19.9375 18.8187C19.9375 19.4896 20.0104 20.1271 20.1563 20.7312C20.3063 21.3312 20.55 21.8792 20.8875 22.375C21.225 22.8667 21.6583 23.2667 22.1875 23.575L21.2563 24.7437C20.6771 24.4021 20.2021 23.9292 19.8313 23.325C19.4604 22.7208 19.1896 22.0375 19.0188 21.275C18.8479 20.5125 18.7625 19.6937 18.7625 18.8187V17.625H19.9375V18.8187ZM21.6625 18.2062H16.5313V16.9312H21.6625V18.2062ZM32.525 22.8625C33.3583 22.8625 34.0771 22.9458 34.6813 23.1125C35.2896 23.2792 35.7583 23.525 36.0875 23.85C36.4208 24.1708 36.5875 24.5583 36.5875 25.0125C36.5875 25.4542 36.4208 25.8354 36.0875 26.1563C35.7583 26.4771 35.2875 26.7229 34.675 26.8938C34.0667 27.0646 33.35 27.15 32.525 27.15C31.7083 27.15 30.9958 27.0646 30.3875 26.8938C29.7792 26.7229 29.3083 26.4771 28.975 26.1563C28.6417 25.8354 28.475 25.4542 28.475 25.0125C28.475 24.5625 28.6396 24.175 28.9688 23.85C29.2979 23.525 29.7667 23.2792 30.375 23.1125C30.9875 22.9458 31.7042 22.8625 32.525 22.8625ZM32.525 24.0437C32 24.0437 31.5542 24.0812 31.1875 24.1562C30.825 24.2271 30.5458 24.3354 30.35 24.4812C30.1583 24.6229 30.0625 24.8 30.0625 25.0125C30.0625 25.2167 30.1583 25.3875 30.35 25.525C30.5458 25.6625 30.825 25.7667 31.1875 25.8375C31.5542 25.9042 32 25.9375 32.525 25.9375C33.0542 25.9375 33.5021 25.9042 33.8688 25.8375C34.2354 25.7667 34.5146 25.6604 34.7063 25.5187C34.9021 25.3771 35 25.2083 35 25.0125C35 24.8 34.9021 24.6229 34.7063 24.4812C34.5146 24.3354 34.2354 24.2271 33.8688 24.1562C33.5021 24.0812 33.0542 24.0437 32.525 24.0437ZM35.85 17.5375H28.5875V16.2812H35.85V17.5375ZM37.7563 22.1437H27.425V20.8562H37.7563V22.1437ZM32.875 21.2H31.2938V18.8625H32.875V21.2ZM36.5313 17.2125C36.5313 17.8292 36.5125 18.3625 36.475 18.8125C36.4417 19.2583 36.3521 19.7417 36.2063 20.2625L34.6375 20.1062C34.7708 19.5812 34.8521 19.1167 34.8813 18.7125C34.9146 18.3083 34.9333 17.8083 34.9375 17.2125V16.2812H36.5313V17.2125ZM43.7563 22.7437C44.5438 22.7396 45.225 22.825 45.8 23C46.3792 23.1708 46.8229 23.4208 47.1313 23.75C47.4396 24.0792 47.5938 24.475 47.5938 24.9375C47.5938 25.4042 47.4396 25.8021 47.1313 26.1313C46.8229 26.4646 46.3813 26.7188 45.8063 26.8938C45.2354 27.0729 44.5521 27.1646 43.7563 27.1688C42.9604 27.1646 42.2688 27.0729 41.6813 26.8938C41.0938 26.7188 40.6417 26.4646 40.325 26.1313C40.0125 25.8021 39.8563 25.4042 39.8563 24.9375C39.8563 24.475 40.0125 24.0792 40.325 23.75C40.6417 23.4208 41.0938 23.1708 41.6813 23C42.2688 22.825 42.9604 22.7396 43.7563 22.7437ZM43.7563 23.975C43.2563 23.975 42.8354 24.0104 42.4938 24.0812C42.1563 24.1521 41.9 24.2583 41.725 24.4C41.55 24.5375 41.4625 24.7167 41.4625 24.9375C41.4625 25.15 41.55 25.3292 41.725 25.475C41.9 25.6208 42.1583 25.7333 42.5 25.8125C42.8458 25.8875 43.2646 25.925 43.7563 25.925C44.2521 25.925 44.6667 25.8875 45 25.8125C45.3375 25.7333 45.5917 25.6208 45.7625 25.475C45.9375 25.3292 46.025 25.15 46.025 24.9375C46.025 24.7167 45.9396 24.5375 45.7688 24.4C45.5979 24.2583 45.3458 24.1521 45.0125 24.0812C44.6792 24.0104 44.2604 23.975 43.7563 23.975ZM47.4875 22.4812H45.8938V15.7625H47.4875V22.4812ZM49.025 19.75H47.0375V18.4187H49.025V19.75ZM40.3813 17.9312H42.7125V16.4937H44.3125V21.8312H38.8V16.4937H40.3813V17.9312ZM42.7125 20.5812V19.1625H40.3813V20.5812H42.7125ZM53.5563 17.3875C53.5563 18.1208 53.4333 18.8083 53.1875 19.45C52.9417 20.0875 52.5729 20.6437 52.0813 21.1187C51.5938 21.5937 50.9938 21.9479 50.2813 22.1812L49.4875 20.9312C50.1 20.7312 50.6125 20.4479 51.025 20.0812C51.4375 19.7146 51.7417 19.3 51.9375 18.8375C52.1333 18.3708 52.2313 17.8875 52.2313 17.3875V16.2937H53.5563V17.3875ZM53.8875 17.3875C53.8875 17.8833 53.9813 18.35 54.1688 18.7875C54.3563 19.225 54.65 19.6167 55.05 19.9625C55.4542 20.3042 55.9563 20.5646 56.5563 20.7437L55.7688 22C55.0604 21.775 54.4667 21.4375 53.9875 20.9875C53.5083 20.5333 53.1479 20 52.9063 19.3875C52.6688 18.775 52.55 18.1083 52.55 17.3875V16.2937H53.8875V17.3875ZM59.0438 27.15H57.45V24.3312H51.2313V23.05H59.0438V27.15ZM59.0438 22.5625H57.45V15.7625H59.0438V22.5625Z" fill="black"/>
<path d="M16.539 40.179H21.929V40.949H20.906V45.525C21.401 45.492 21.885 45.448 22.347 45.393L22.402 46.097C20.389 46.427 18.101 46.46 16.418 46.46L16.308 45.657L17.551 45.646V40.949H16.539V40.179ZM22.919 39.156H23.876V42.995H25.438V43.787H23.876V48.836H22.919V39.156ZM18.486 45.635L19.982 45.58V40.949H18.486V45.635ZM28.5183 39.497C29.9703 39.497 31.0483 40.377 31.0483 41.653C31.0483 42.918 29.9703 43.787 28.5183 43.787C27.0773 43.787 26.0103 42.918 26.0103 41.653C26.0103 40.377 27.0773 39.497 28.5183 39.497ZM28.5183 40.267C27.6163 40.267 26.9343 40.828 26.9343 41.653C26.9343 42.467 27.6163 43.017 28.5183 43.017C29.4423 43.017 30.1133 42.467 30.1133 41.653C30.1133 40.828 29.4423 40.267 28.5183 40.267ZM32.7973 39.156H33.7543V44.095H32.7973V39.156ZM27.4733 44.557H33.7543V46.944H28.4193V47.945H34.0733V48.704H27.5063V46.24H32.8083V45.305H27.4733V44.557ZM44.0337 39.134H44.9907V42.929H46.5527V43.721H44.9907V48.847H44.0337V39.134ZM37.9397 40.091H42.4387V40.861H38.8857V45.635C40.5687 45.635 41.7787 45.569 43.1647 45.305L43.2747 46.119C41.7897 46.394 40.5137 46.438 38.7097 46.438H37.9397V40.091ZM46.9159 44.04H55.6829V44.81H51.8439V46.735H50.8759V44.81H46.9159V44.04ZM48.0159 45.778H48.9729V47.835H54.7149V48.616H48.0159V45.778ZM51.2829 39.376C53.3509 39.376 54.6929 40.135 54.6929 41.345C54.6929 42.544 53.3509 43.292 51.2829 43.292C49.2369 43.292 47.8839 42.544 47.8839 41.345C47.8839 40.135 49.2369 39.376 51.2829 39.376ZM51.2829 40.157C49.8529 40.157 48.8959 40.608 48.8959 41.345C48.8959 42.071 49.8529 42.511 51.2829 42.511C52.7239 42.511 53.6809 42.071 53.6809 41.345C53.6809 40.608 52.7239 40.157 51.2829 40.157ZM56.3102 46.867H60.2042V45.096H57.3992V42.06H63.0642V40.619H57.3772V39.849H64.0102V42.819H58.3342V44.326H64.2302V45.096H61.1502V46.867H65.0772V47.648H56.3102V46.867ZM66.8044 40.025H73.3714V40.806H67.7504V43.765H73.4704V44.535H66.8044V40.025ZM65.7044 46.746H74.4714V47.527H65.7044V46.746Z" fill="#7B8598"/>
<circle cx="146.5" cy="92.5" r="35" fill="#FAFAFA" stroke="#E7EDF8"/>
<path d="M137.893 73C138.277 73 138.648 73.1441 138.932 73.4033L143.737 77.7908C144.163 78.1798 144.719 78.3955 145.296 78.3955H165.855C167.133 78.3955 168.168 79.4308 168.168 80.708V88.417C168.168 89.6942 167.133 90.7295 165.855 90.7295H128.084C126.807 90.7295 125.771 89.6942 125.771 88.417V74.542C125.771 73.6906 126.462 73 127.313 73H137.893Z" fill="#013945"/>
<rect x="125" y="84.5625" width="44.7083" height="25.4375" rx="1.54167" fill="#C3DFCE"/>
<path d="M142.729 96.7773H151.979" stroke="#013945" stroke-width="1.89744" stroke-linecap="round" stroke-linejoin="round"/>
<path d="M147.234 92.2715V101.521" stroke="#013945" stroke-width="1.89744" stroke-linecap="round" stroke-linejoin="round"/>
</svg>
