<svg width="36" height="36" viewBox="0 0 36 36" fill="none" xmlns="http://www.w3.org/2000/svg">
<mask id="path-1-inside-1_1554_11301" fill="white">
<path d="M23.8413 7.99951C25.9619 7.99974 27.6812 9.71873 27.6812 11.8394V23.8394C27.6808 25.9597 25.9617 27.679 23.8413 27.6792H11.8413C9.72092 27.679 8.00083 25.9597 8.00049 23.8394V11.8394C8.00049 9.71871 9.72071 7.99972 11.8413 7.99951H23.8413ZM17.8413 12.8003C15.058 12.8005 12.8013 15.0569 12.8013 17.8403C12.8017 20.6233 15.0582 22.8802 17.8413 22.8804C20.6242 22.8799 22.8809 20.6232 22.8813 17.8403C22.8813 15.0571 20.6244 12.8007 17.8413 12.8003ZM17.8413 14.7202C19.5642 14.7205 20.9614 16.1174 20.9614 17.8403C20.9611 19.563 19.564 20.9602 17.8413 20.9604C16.1186 20.9602 14.7215 19.5631 14.7212 17.8403C14.7212 16.1174 16.1184 14.7204 17.8413 14.7202ZM23.8423 10.8784C23.3122 10.8784 22.8826 11.3084 22.8823 11.8384C22.8823 12.3686 23.3121 12.7983 23.8423 12.7983C24.3724 12.7983 24.8022 12.3685 24.8022 11.8384C24.802 11.3084 24.3723 10.8785 23.8423 10.8784Z"/>
</mask>
<path d="M23.8413 7.99951L23.8414 7.51951H23.8413V7.99951ZM27.6812 23.8394L28.1612 23.8394V23.8394H27.6812ZM23.8413 27.6792V28.1592H23.8414L23.8413 27.6792ZM11.8413 27.6792L11.8413 28.1592H11.8413V27.6792ZM8.00049 23.8394H7.52049V23.8394L8.00049 23.8394ZM11.8413 7.99951V7.51951H11.8413L11.8413 7.99951ZM17.8413 12.8003L17.8414 12.3203H17.8413L17.8413 12.8003ZM12.8013 17.8403H12.3213V17.8404L12.8013 17.8403ZM17.8413 22.8804L17.8413 23.3604L17.8414 23.3604L17.8413 22.8804ZM22.8813 17.8403L23.3613 17.8404V17.8403H22.8813ZM17.8413 14.7202L17.8414 14.2402H17.8412L17.8413 14.7202ZM20.9614 17.8403L21.4414 17.8404L21.4414 17.8403L20.9614 17.8403ZM17.8413 20.9604L17.8412 21.4404L17.8414 21.4404L17.8413 20.9604ZM14.7212 17.8403L14.2412 17.8403V17.8404L14.7212 17.8403ZM23.8423 10.8784L23.8424 10.3984H23.8423V10.8784ZM22.8823 11.8384L22.4023 11.8382V11.8384H22.8823ZM23.8423 12.7983V13.2783H23.8424L23.8423 12.7983ZM24.8022 11.8384H25.2822V11.8382L24.8022 11.8384ZM23.8413 7.99951L23.8413 8.47951C25.6968 8.47972 27.2012 9.98387 27.2012 11.8394H27.6812H28.1612C28.1612 9.45358 26.2269 7.51977 23.8414 7.51951L23.8413 7.99951ZM27.6812 11.8394H27.2012V23.8394H27.6812H28.1612V11.8394H27.6812ZM27.6812 23.8394L27.2012 23.8393C27.2009 25.6946 25.6965 27.199 23.8413 27.1992L23.8413 27.6792L23.8414 28.1592C26.2268 28.1589 28.1608 26.2248 28.1612 23.8394L27.6812 23.8394ZM23.8413 27.6792V27.1992H11.8413V27.6792V28.1592H23.8413V27.6792ZM11.8413 27.6792L11.8414 27.1992C9.9859 27.199 8.48078 25.6945 8.48049 23.8393L8.00049 23.8394L7.52049 23.8394C7.52087 26.225 9.45595 28.159 11.8413 28.1592L11.8413 27.6792ZM8.00049 23.8394H8.48049V11.8394H8.00049H7.52049V23.8394H8.00049ZM8.00049 11.8394H8.48049C8.48049 9.98402 9.98562 8.4797 11.8414 8.47951L11.8413 7.99951L11.8413 7.51951C9.45581 7.51975 7.52049 9.45341 7.52049 11.8394H8.00049ZM11.8413 7.99951V8.47951H23.8413V7.99951V7.51951H11.8413V7.99951ZM17.8413 12.8003L17.8413 12.3203C14.7929 12.3205 12.3213 14.7918 12.3213 17.8403H12.8013H13.2813C13.2813 15.3221 15.323 13.2805 17.8413 13.2803L17.8413 12.8003ZM12.8013 17.8403L12.3213 17.8404C12.3218 20.8884 14.7931 23.3601 17.8413 23.3604L17.8413 22.8804L17.8413 22.4004C15.3234 22.4002 13.2817 20.3583 13.2813 17.8403L12.8013 17.8403ZM17.8413 22.8804L17.8414 23.3604C20.8893 23.3599 23.3609 20.8883 23.3613 17.8404L22.8813 17.8403L22.4013 17.8403C22.4009 20.3581 20.3591 22.4 17.8412 22.4004L17.8413 22.8804ZM22.8813 17.8403H23.3613C23.3613 14.7919 20.8895 12.3208 17.8414 12.3203L17.8413 12.8003L17.8412 13.2803C20.3594 13.2807 22.4013 15.3223 22.4013 17.8403H22.8813ZM17.8413 14.7202L17.8412 15.2002C19.2991 15.2004 20.4814 16.3826 20.4814 17.8403L20.9614 17.8403L21.4414 17.8403C21.4414 15.8522 19.8292 14.2405 17.8414 14.2402L17.8413 14.7202ZM20.9614 17.8403L20.4814 17.8402C20.4812 19.2979 19.2989 20.4802 17.8412 20.4804L17.8413 20.9604L17.8414 21.4404C19.8291 21.4401 21.4411 19.8281 21.4414 17.8404L20.9614 17.8403ZM17.8413 20.9604L17.8414 20.4804C16.3837 20.4803 15.2015 19.298 15.2012 17.8402L14.7212 17.8403L14.2412 17.8404C14.2416 19.8281 15.8534 21.4402 17.8412 21.4404L17.8413 20.9604ZM14.7212 17.8403L15.2012 17.8403C15.2012 16.3825 16.3834 15.2004 17.8414 15.2002L17.8413 14.7202L17.8412 14.2402C15.8533 14.2405 14.2412 15.8522 14.2412 17.8403L14.7212 17.8403ZM23.8423 10.8784V10.3984C23.0469 10.3984 22.4027 11.0434 22.4023 11.8382L22.8823 11.8384L23.3623 11.8386C23.3624 11.5733 23.5775 11.3584 23.8423 11.3584V10.8784ZM22.8823 11.8384H22.4023C22.4023 12.6337 23.047 13.2783 23.8423 13.2783V12.7983V12.3183C23.5772 12.3183 23.3623 12.1035 23.3623 11.8384H22.8823ZM23.8423 12.7983L23.8424 13.2783C24.6374 13.2782 25.2822 12.6337 25.2822 11.8384H24.8022H24.3222C24.3222 12.1033 24.1074 12.3183 23.8422 12.3183L23.8423 12.7983ZM24.8022 11.8384L25.2822 11.8382C25.2819 11.0434 24.6375 10.3985 23.8424 10.3984L23.8423 10.8784L23.8422 11.3584C24.107 11.3585 24.3221 11.5734 24.3222 11.8386L24.8022 11.8384Z" fill="#E7EDF8" mask="url(#path-1-inside-1_1554_11301)"/>
<circle cx="17.8007" cy="17.801" r="16.4" stroke="#E7EDF8" stroke-width="0.8"/>
</svg>
