<svg width="48" height="48" viewBox="0 0 48 48" fill="none" xmlns="http://www.w3.org/2000/svg">
<mask id="path-1-inside-1_901_6477" fill="white">
<path fill-rule="evenodd" clip-rule="evenodd" d="M12.0745 16.8772C12.0745 14.2262 14.2235 12.0771 16.8745 12.0771H31.8745C34.5254 12.0771 36.6745 14.2262 36.6745 16.8771V31.8771C36.6745 34.5281 34.5254 36.6771 31.8745 36.6771H16.8745C14.2235 36.6771 12.0745 34.5281 12.0745 31.8771V16.8772ZM24.3743 30.6779C27.8537 30.6779 30.6743 27.8573 30.6743 24.3779C30.6743 20.8985 27.8537 18.0779 24.3743 18.0779C20.8949 18.0779 18.0743 20.8985 18.0743 24.3779C18.0743 27.8573 20.8949 30.6779 24.3743 30.6779ZM24.3743 28.2779C26.5282 28.2779 28.2743 26.5318 28.2743 24.3779C28.2743 22.224 26.5282 20.4779 24.3743 20.4779C22.2204 20.4779 20.4743 22.224 20.4743 24.3779C20.4743 26.5318 22.2204 28.2779 24.3743 28.2779ZM31.8747 18.0764C32.5374 18.0764 33.0747 17.5391 33.0747 16.8764C33.0747 16.2136 32.5374 15.6764 31.8747 15.6764C31.2119 15.6764 30.6747 16.2136 30.6747 16.8764C30.6747 17.5391 31.2119 18.0764 31.8747 18.0764Z"/>
</mask>
<path d="M16.8745 11.4771C13.8921 11.4771 11.4745 13.8948 11.4745 16.8772H12.6745C12.6745 14.5576 14.5549 12.6771 16.8745 12.6771V11.4771ZM31.8745 11.4771H16.8745V12.6771H31.8745V11.4771ZM37.2745 16.8771C37.2745 13.8948 34.8568 11.4771 31.8745 11.4771V12.6771C34.1941 12.6771 36.0745 14.5576 36.0745 16.8771H37.2745ZM37.2745 31.8771V16.8771H36.0745V31.8771H37.2745ZM31.8745 37.2771C34.8568 37.2771 37.2745 34.8595 37.2745 31.8771H36.0745C36.0745 34.1967 34.1941 36.0771 31.8745 36.0771V37.2771ZM16.8745 37.2771H31.8745V36.0771H16.8745V37.2771ZM11.4745 31.8771C11.4745 34.8595 13.8921 37.2771 16.8745 37.2771V36.0771C14.5549 36.0771 12.6745 34.1967 12.6745 31.8771H11.4745ZM11.4745 16.8772V31.8771H12.6745V16.8772H11.4745ZM30.0743 24.3779C30.0743 27.526 27.5223 30.0779 24.3743 30.0779V31.2779C28.185 31.2779 31.2743 28.1887 31.2743 24.3779H30.0743ZM24.3743 18.6779C27.5223 18.6779 30.0743 21.2299 30.0743 24.3779H31.2743C31.2743 20.5672 28.185 17.4779 24.3743 17.4779V18.6779ZM18.6743 24.3779C18.6743 21.2299 21.2262 18.6779 24.3743 18.6779V17.4779C20.5635 17.4779 17.4743 20.5672 17.4743 24.3779H18.6743ZM24.3743 30.0779C21.2262 30.0779 18.6743 27.526 18.6743 24.3779H17.4743C17.4743 28.1887 20.5635 31.2779 24.3743 31.2779V30.0779ZM27.6743 24.3779C27.6743 26.2005 26.1968 27.6779 24.3743 27.6779V28.8779C26.8595 28.8779 28.8743 26.8632 28.8743 24.3779H27.6743ZM24.3743 21.0779C26.1968 21.0779 27.6743 22.5554 27.6743 24.3779H28.8743C28.8743 21.8926 26.8595 19.8779 24.3743 19.8779V21.0779ZM21.0743 24.3779C21.0743 22.5554 22.5517 21.0779 24.3743 21.0779V19.8779C21.889 19.8779 19.8743 21.8926 19.8743 24.3779H21.0743ZM24.3743 27.6779C22.5517 27.6779 21.0743 26.2005 21.0743 24.3779H19.8743C19.8743 26.8632 21.889 28.8779 24.3743 28.8779V27.6779ZM32.4747 16.8764C32.4747 17.2077 32.206 17.4764 31.8747 17.4764V18.6764C32.8688 18.6764 33.6747 17.8705 33.6747 16.8764H32.4747ZM31.8747 16.2764C32.206 16.2764 32.4747 16.545 32.4747 16.8764H33.6747C33.6747 15.8823 32.8688 15.0764 31.8747 15.0764V16.2764ZM31.2747 16.8764C31.2747 16.545 31.5433 16.2764 31.8747 16.2764V15.0764C30.8805 15.0764 30.0747 15.8823 30.0747 16.8764H31.2747ZM31.8747 17.4764C31.5433 17.4764 31.2747 17.2077 31.2747 16.8764H30.0747C30.0747 17.8705 30.8805 18.6764 31.8747 18.6764V17.4764Z" fill="#E7EDF8" mask="url(#path-1-inside-1_901_6477)"/>
<circle cx="24" cy="24" r="20.5" stroke="#E7EDF8"/>
</svg>
