<svg width="18" height="18" viewBox="0 0 18 18" fill="none" xmlns="http://www.w3.org/2000/svg">
<path d="M9 3.19922C9.44183 3.19922 9.7998 3.5572 9.7998 3.99902V8.19922H14L14.082 8.20312C14.4853 8.2442 14.7998 8.58489 14.7998 8.99902C14.7998 9.41316 14.4853 9.75385 14.082 9.79492L14 9.79883H9.7998V13.999L9.7959 14.0811C9.75482 14.4843 9.41413 14.7988 9 14.7988C8.58587 14.7988 8.24518 14.4843 8.2041 14.0811L8.2002 13.999V9.79883H4C3.55817 9.79883 3.2002 9.44085 3.2002 8.99902C3.2002 8.5572 3.55817 8.19922 4 8.19922H8.2002V3.99902C8.2002 3.5572 8.55817 3.19922 9 3.19922Z" fill="#7B8598"/>
</svg>
