<svg width="62" height="62" viewBox="0 0 62 62" fill="none" xmlns="http://www.w3.org/2000/svg">
<path fill-rule="evenodd" clip-rule="evenodd" d="M53.3117 53.1169C54.1937 52.4519 54.3695 51.1978 53.7045 50.3158L22.3979 8.79601C21.7329 7.91406 20.4789 7.73819 19.5969 8.4032C18.715 9.0682 18.5391 10.3223 19.2041 11.2042L50.5107 52.724C51.1757 53.606 52.4298 53.7819 53.3117 53.1169ZM45.2 12.3625V35.6874L32.2189 18.4715L44 11.6697C44.5333 11.3618 45.2 11.7467 45.2 12.3625ZM8.8 22.0543H24.5709L45.2 49.4133V52.5461C45.2 53.1619 44.5333 53.5468 44 53.2389L26.199 42.9615C26.0774 42.8913 25.9394 42.8543 25.799 42.8543H8.8C8.35817 42.8543 8 42.4961 8 42.0543V32.4543V22.8543C8 22.4125 8.35817 22.0543 8.8 22.0543Z" fill="#FAFAFA"/>
</svg>
