<svg width="192" height="136" viewBox="0 0 192 136" fill="none" xmlns="http://www.w3.org/2000/svg">
<rect x="0.355556" y="0.355556" width="191.289" height="135.289" rx="2.26865" fill="white"/>
<rect x="0.355556" y="0.355556" width="191.289" height="135.289" rx="2.26865" stroke="#E7EDF8" stroke-width="0.711111"/>
<path d="M21.5769 19.4816C21.5769 20.7733 21.4394 21.9212 21.1644 22.9254C20.8894 23.9254 20.3769 24.8587 19.6269 25.7254C18.881 26.5879 17.8269 27.3629 16.4644 28.0504L15.5956 26.8441C16.7581 26.2691 17.6623 25.6337 18.3081 24.9379C18.9539 24.2421 19.4019 23.4775 19.6519 22.6441C19.9019 21.8108 20.0269 20.8254 20.0269 19.6879V19.4816H21.5769ZM20.9769 20.7629H16.3144V19.4816H20.9769V20.7629ZM15.9081 23.8941L15.7144 22.5316L20.0581 22.2754V23.5066L15.9081 23.8941ZM24.6206 29.7504H23.0206V18.3816H24.6206V29.7504ZM26.2269 24.0691H24.2081V22.7566H26.2269V24.0691ZM35.9769 24.9379H27.9394V23.6629H35.9769V24.9379ZM37.1144 28.3879H26.7144V27.0754H37.1144V28.3879ZM35.8956 20.6316H29.5144V24.1941H27.9394V19.3441H35.8956V20.6316ZM49.1331 20.6754H41.9206V19.3879H49.1331V20.6754ZM51.1144 28.4004H40.7394V27.1004H51.1144V28.4004ZM50.0394 20.7191C50.0394 21.4441 50.031 22.0608 50.0144 22.5691C50.0019 23.0775 49.9581 23.6525 49.8831 24.2941C49.8081 24.9358 49.6873 25.6421 49.5206 26.4129L47.9331 26.2754C48.0998 25.5629 48.2227 24.8921 48.3019 24.2629C48.381 23.6337 48.4289 23.0691 48.4456 22.5691C48.4664 22.0691 48.4769 21.4525 48.4769 20.7191V19.3879H50.0394V20.7191ZM41.7706 24.0379L41.5769 22.7691L48.8081 22.5129V23.6941L41.7706 24.0379ZM61.3581 29.7691H59.7394V18.3816H61.3581V29.7691ZM57.9519 19.5816C57.9519 20.8025 57.7873 21.9108 57.4581 22.9066C57.1331 23.8983 56.581 24.8108 55.8019 25.6441C55.0227 26.4733 53.9789 27.1983 52.6706 27.8191L51.8331 26.5441C52.9289 26.0275 53.8081 25.4462 54.4706 24.8004C55.1331 24.1546 55.6144 23.4296 55.9144 22.6254C56.2144 21.8212 56.3644 20.9004 56.3644 19.8629V19.5816H57.9519ZM57.0956 20.8379H52.4394V19.5816H57.0956V20.8379Z" fill="black"/>
<path d="M18.9945 41.2467V50.5011H17.9321V42.4243L16.4217 43.3971L15.8969 42.5523L17.9321 41.2467H18.9945ZM24.0466 49.6435C25.3906 49.6435 26.325 48.0947 26.325 45.8675C26.325 43.6403 25.3906 42.0915 24.0466 42.0915C22.6898 42.0915 21.7426 43.6403 21.7426 45.8675C21.7426 48.0947 22.6898 49.6435 24.0466 49.6435ZM24.0466 50.5907C22.0626 50.5907 20.6802 48.6323 20.6802 45.8675C20.6802 43.1027 22.0626 41.1571 24.0466 41.1571C26.005 41.1571 27.3874 43.1027 27.3874 45.8675C27.3874 48.6323 26.005 50.5907 24.0466 50.5907ZM31.8406 49.6435C33.1846 49.6435 34.119 48.0947 34.119 45.8675C34.119 43.6403 33.1846 42.0915 31.8406 42.0915C30.4838 42.0915 29.5366 43.6403 29.5366 45.8675C29.5366 48.0947 30.4838 49.6435 31.8406 49.6435ZM31.8406 50.5907C29.8566 50.5907 28.4742 48.6323 28.4742 45.8675C28.4742 43.1027 29.8566 41.1571 31.8406 41.1571C33.799 41.1571 35.1814 43.1027 35.1814 45.8675C35.1814 48.6323 33.799 50.5907 31.8406 50.5907ZM46.8214 41.2083L43.647 45.8547L46.8214 50.5267H45.5158L42.9942 46.7763L40.4726 50.5267H39.167L42.3414 45.8547L39.167 41.2083H40.4726L42.9942 44.9331L45.5158 41.2211L46.8214 41.2083ZM53.8335 41.2467V50.5011H52.7711V42.4243L51.2607 43.3971L50.7359 42.5523L52.7711 41.2467H53.8335ZM57.0168 46.2003L55.9544 46.0467L56.2616 41.2211H60.9848V42.1683H57.2856L57.1064 44.8307C57.5672 44.5875 58.092 44.4467 58.5656 44.4467C60.4216 44.4467 61.74 45.7139 61.74 47.5059C61.74 49.3363 60.4216 50.6291 58.5656 50.6291C57.1192 50.6291 55.8648 49.6563 55.5448 48.2739L56.5816 48.0307C56.7864 48.9651 57.6056 49.6179 58.5656 49.6179C59.8072 49.6179 60.6776 48.7475 60.6776 47.5059C60.6776 46.3027 59.8072 45.4579 58.5656 45.4579C58.0408 45.4579 57.4008 45.7651 57.0168 46.2003ZM66.2046 49.6435C67.5486 49.6435 68.483 48.0947 68.483 45.8675C68.483 43.6403 67.5486 42.0915 66.2046 42.0915C64.8478 42.0915 63.9006 43.6403 63.9006 45.8675C63.9006 48.0947 64.8478 49.6435 66.2046 49.6435ZM66.2046 50.5907C64.2206 50.5907 62.8382 48.6323 62.8382 45.8675C62.8382 43.1027 64.2206 41.1571 66.2046 41.1571C68.163 41.1571 69.5454 43.1027 69.5454 45.8675C69.5454 48.6323 68.163 50.5907 66.2046 50.5907Z" fill="#7B8598"/>
<g opacity="0.8">
<rect x="125.867" y="45.5117" width="49.7778" height="71.1111" rx="4.9469" fill="url(#paint0_linear_2858_10426)" fill-opacity="0.6"/>
<rect x="126.691" y="46.3362" width="48.1288" height="69.4622" rx="4.12242" stroke="url(#paint1_linear_2858_10426)" stroke-opacity="0.9" stroke-width="1.64897"/>
</g>
<path d="M125.635 38.1684C125.507 38.2965 125.507 38.5042 125.635 38.6323L127.722 40.7199C127.85 40.848 128.058 40.848 128.186 40.7199C128.314 40.5918 128.314 40.3841 128.186 40.256L126.331 38.4004L128.186 36.5448C128.314 36.4167 128.314 36.209 128.186 36.0809C128.058 35.9528 127.85 35.9528 127.722 36.0809L125.635 38.1684ZM175.876 38.6323C176.005 38.5042 176.005 38.2965 175.876 38.1684L173.789 36.0809C173.661 35.9528 173.453 35.9528 173.325 36.0809C173.197 36.209 173.197 36.4167 173.325 36.5448L175.181 38.4004L173.325 40.256C173.197 40.3841 173.197 40.5918 173.325 40.7199C173.453 40.848 173.661 40.848 173.789 40.7199L175.876 38.6323ZM125.867 38.4004V38.7284H175.644V38.4004V38.0724H125.867V38.4004Z" fill="#41650C"/>
<path d="M118.987 45.2798C118.859 45.1517 118.652 45.1517 118.523 45.2798L116.436 47.3673C116.308 47.4954 116.308 47.7031 116.436 47.8312C116.564 47.9593 116.772 47.9593 116.9 47.8312L118.755 45.9756L120.611 47.8312C120.739 47.9593 120.947 47.9593 121.075 47.8312C121.203 47.7031 121.203 47.4954 121.075 47.3673L118.987 45.2798ZM118.523 116.855C118.652 116.983 118.859 116.983 118.987 116.855L121.075 114.767C121.203 114.639 121.203 114.431 121.075 114.303C120.947 114.175 120.739 114.175 120.611 114.303L118.755 116.159L116.9 114.303C116.772 114.175 116.564 114.175 116.436 114.303C116.308 114.431 116.308 114.639 116.436 114.767L118.523 116.855ZM118.755 45.5117H118.427V116.623H118.755H119.083V45.5117H118.755Z" fill="#41650C"/>
<path d="M143.366 24.8302V33.0563H142.421V25.8769L141.079 26.7416L140.612 25.9907L142.421 24.8302H143.366ZM148.084 32.294C149.279 32.294 150.109 30.9173 150.109 28.9375C150.109 26.9578 149.279 25.5811 148.084 25.5811C146.878 25.5811 146.036 26.9578 146.036 28.9375C146.036 30.9173 146.878 32.294 148.084 32.294ZM148.084 33.1359C146.32 33.1359 145.092 31.3951 145.092 28.9375C145.092 26.4799 146.32 24.7505 148.084 24.7505C149.825 24.7505 151.054 26.4799 151.054 28.9375C151.054 31.3951 149.825 33.1359 148.084 33.1359ZM155.24 32.294C156.434 32.294 157.265 30.9173 157.265 28.9375C157.265 26.9578 156.434 25.5811 155.24 25.5811C154.033 25.5811 153.192 26.9578 153.192 28.9375C153.192 30.9173 154.033 32.294 155.24 32.294ZM155.24 33.1359C153.476 33.1359 152.247 31.3951 152.247 28.9375C152.247 26.4799 153.476 24.7505 155.24 24.7505C156.98 24.7505 158.209 26.4799 158.209 28.9375C158.209 31.3951 156.98 33.1359 155.24 33.1359Z" fill="#1F3301"/>
<path d="M96.4326 74.6075V82.8336H95.4882V75.6543L94.1456 76.519L93.6791 75.768L95.4882 74.6075H96.4326ZM99.4897 79.0107L98.5454 78.8742L98.8184 74.5848H103.017V75.4267H99.7287L99.5694 77.7933C99.979 77.5771 100.445 77.452 100.866 77.452C102.516 77.452 103.688 78.5784 103.688 80.1712C103.688 81.7983 102.516 82.9474 100.866 82.9474C99.5807 82.9474 98.4657 82.0827 98.1813 80.8539L99.1029 80.6377C99.2849 81.4683 100.013 82.0486 100.866 82.0486C101.97 82.0486 102.744 81.2749 102.744 80.1712C102.744 79.1017 101.97 78.3508 100.866 78.3508C100.4 78.3508 99.8311 78.6239 99.4897 79.0107ZM107.884 82.0713C109.079 82.0713 109.909 80.6946 109.909 78.7149C109.909 76.7352 109.079 75.3584 107.884 75.3584C106.678 75.3584 105.836 76.7352 105.836 78.7149C105.836 80.6946 106.678 82.0713 107.884 82.0713ZM107.884 82.9133C106.121 82.9133 104.892 81.1725 104.892 78.7149C104.892 76.2573 106.121 74.5279 107.884 74.5279C109.625 74.5279 110.854 76.2573 110.854 78.7149C110.854 81.1725 109.625 82.9133 107.884 82.9133Z" fill="#1F3301"/>
<defs>
<linearGradient id="paint0_linear_2858_10426" x1="126.505" y1="47.1857" x2="190.89" y2="93.1773" gradientUnits="userSpaceOnUse">
<stop stop-color="#B7FF4C" stop-opacity="0.41"/>
<stop offset="0.302885" stop-color="#E0FABB" stop-opacity="0.65"/>
<stop offset="1" stop-color="#B7FF4C" stop-opacity="0.36"/>
</linearGradient>
<linearGradient id="paint1_linear_2858_10426" x1="131.523" y1="45.5117" x2="189.105" y2="96.184" gradientUnits="userSpaceOnUse">
<stop stop-color="#6EAF0D" stop-opacity="0.77"/>
<stop offset="0.5" stop-color="#41650C" stop-opacity="0.4"/>
<stop offset="1" stop-color="#6EAF0D" stop-opacity="0.77"/>
</linearGradient>
</defs>
</svg>
