<svg width="192" height="136" viewBox="0 0 192 136" fill="none" xmlns="http://www.w3.org/2000/svg">
<rect x="0.355556" y="0.355556" width="191.289" height="135.289" rx="2.26865" fill="white"/>
<rect x="0.355556" y="0.355556" width="191.289" height="135.289" rx="2.26865" stroke="#E7EDF8" stroke-width="0.711111"/>
<path d="M21.5769 19.4816C21.5769 20.7733 21.4394 21.9212 21.1644 22.9254C20.8894 23.9254 20.3769 24.8587 19.6269 25.7254C18.881 26.5879 17.8269 27.3629 16.4644 28.0504L15.5956 26.8441C16.7581 26.2691 17.6623 25.6337 18.3081 24.9379C18.9539 24.2421 19.4019 23.4775 19.6519 22.6441C19.9019 21.8108 20.0269 20.8254 20.0269 19.6879V19.4816H21.5769ZM20.9769 20.7629H16.3144V19.4816H20.9769V20.7629ZM15.9081 23.8941L15.7144 22.5316L20.0581 22.2754V23.5066L15.9081 23.8941ZM24.6206 29.7504H23.0206V18.3816H24.6206V29.7504ZM26.2269 24.0691H24.2081V22.7566H26.2269V24.0691ZM35.9769 24.9379H27.9394V23.6629H35.9769V24.9379ZM37.1144 28.3879H26.7144V27.0754H37.1144V28.3879ZM35.8956 20.6316H29.5144V24.1941H27.9394V19.3441H35.8956V20.6316ZM49.3394 22.1691H47.2081V20.8879H49.3394V22.1691ZM49.2956 24.4379H47.1831V23.1629H49.2956V24.4379ZM47.0769 20.7066H40.7581V19.4441H47.0769V20.7066ZM43.9831 21.0879C44.4998 21.0879 44.9623 21.1775 45.3706 21.3566C45.7831 21.5358 46.1039 21.7879 46.3331 22.1129C46.5623 22.4337 46.6769 22.8004 46.6769 23.2129C46.6769 23.6337 46.5623 24.0046 46.3331 24.3254C46.1039 24.6462 45.7831 24.8962 45.3706 25.0754C44.9623 25.2546 44.4998 25.3441 43.9831 25.3441C43.4664 25.3441 43.0039 25.2546 42.5956 25.0754C42.1914 24.8962 41.8769 24.6462 41.6519 24.3254C41.431 24.0046 41.3206 23.6337 41.3206 23.2129C41.3206 22.7962 41.431 22.4275 41.6519 22.1066C41.8769 21.7858 42.1914 21.5358 42.5956 21.3566C43.0039 21.1775 43.4664 21.0879 43.9831 21.0879ZM43.9831 22.2691C43.7456 22.2691 43.5373 22.3066 43.3581 22.3816C43.1831 22.4566 43.0456 22.565 42.9456 22.7066C42.8498 22.8441 42.8019 23.0129 42.8019 23.2129C42.8019 23.4171 42.8498 23.59 42.9456 23.7316C43.0456 23.8691 43.1831 23.9754 43.3581 24.0504C43.5331 24.1212 43.7414 24.1566 43.9831 24.1566C44.2248 24.1566 44.4352 24.1212 44.6144 24.0504C44.7977 23.9754 44.9394 23.8691 45.0394 23.7316C45.1435 23.59 45.1956 23.4171 45.1956 23.2129C45.1956 23.0129 45.1435 22.8441 45.0394 22.7066C44.9394 22.565 44.7977 22.4566 44.6144 22.3816C44.4352 22.3066 44.2248 22.2691 43.9831 22.2691ZM44.7956 20.3129H43.2019V18.2941H44.7956V20.3129ZM50.3206 25.6441H48.7331V18.3816H50.3206V25.6441ZM46.4581 25.7754C47.2623 25.7754 47.9581 25.8546 48.5456 26.0129C49.1373 26.1712 49.5914 26.4025 49.9081 26.7066C50.2248 27.0066 50.3831 27.3629 50.3831 27.7754C50.3831 28.1879 50.2248 28.5441 49.9081 28.8441C49.5914 29.1441 49.1373 29.3733 48.5456 29.5316C47.9539 29.69 47.2581 29.7691 46.4581 29.7691C45.6539 29.7691 44.9581 29.69 44.3706 29.5316C43.7831 29.3733 43.3289 29.1441 43.0081 28.8441C42.6914 28.5441 42.5331 28.1879 42.5331 27.7754C42.5331 27.3629 42.6914 27.0066 43.0081 26.7066C43.3289 26.4025 43.7831 26.1712 44.3706 26.0129C44.9581 25.8546 45.6539 25.7754 46.4581 25.7754ZM46.4581 26.9879C45.9664 26.9879 45.5539 27.0171 45.2206 27.0754C44.8873 27.1296 44.6352 27.215 44.4644 27.3316C44.2935 27.4483 44.2081 27.5962 44.2081 27.7754C44.2081 27.9462 44.2935 28.0921 44.4644 28.2129C44.6394 28.3296 44.8935 28.4191 45.2269 28.4816C45.5602 28.54 45.9706 28.5691 46.4581 28.5691C46.9373 28.5691 47.3394 28.54 47.6644 28.4816C47.9935 28.4191 48.2435 28.3296 48.4144 28.2129C48.5852 28.0921 48.6706 27.9462 48.6706 27.7754C48.6706 27.5962 48.5852 27.4483 48.4144 27.3316C48.2477 27.215 48.0019 27.1296 47.6769 27.0754C47.3519 27.0171 46.9456 26.9879 46.4581 26.9879ZM52.9769 25.8379C53.9394 25.8337 54.7039 25.8191 55.2706 25.7941C55.8414 25.765 56.4289 25.7046 57.0331 25.6129L57.1519 26.9191C56.5352 27.0191 55.9206 27.0858 55.3081 27.1191C54.6998 27.1483 53.9227 27.1629 52.9769 27.1629H52.1831V25.8379H52.9769ZM56.8144 20.8379H53.7019V26.3754H52.1831V19.5879H56.8144V20.8379ZM56.5956 23.7879H53.2706V22.5629H56.5956V23.7879ZM61.6581 29.7691H60.1269V18.3816H61.6581V29.7691ZM60.6331 24.0816H58.7081V22.8004H60.6331V24.0816ZM59.1519 29.2441H57.6394V18.5566H59.1519V29.2441Z" fill="black"/>
<path d="M20.2233 44.1907H22.0153V40.4275H23.0521V50.8851H22.0153V45.1123H20.2233V44.1907ZM18.0857 41.2467H19.1481V43.3203C19.1481 45.1123 19.9545 47.0323 21.4393 47.9539L20.8121 48.8115C19.7625 48.1715 19.0329 47.0067 18.6361 45.6883C18.2265 47.1347 17.4329 48.3763 16.3321 49.0547L15.6409 48.2227C17.2025 47.3011 18.0857 45.2787 18.0857 43.3459V41.2467ZM24.3065 40.1843H25.3689V51.4483H24.3065V40.1843ZM26.726 49.1699H31.2572V47.1091H27.9932V43.5763H34.5852V41.8995H27.9676V41.0035H35.686V44.4595H29.0812V46.2131H35.942V47.1091H32.358V49.1699H36.9276V50.0787H26.726V49.1699ZM46.3547 42.8979H48.5051V40.1971H49.6059V46.3155H48.5051V43.8067H46.3547V42.8979ZM42.3867 46.8403H43.4747V48.1715H48.5307V46.8403H49.6059V51.3075H42.3867V46.8403ZM43.4747 49.0547V50.3987H48.5307V49.0547H43.4747ZM40.6971 40.8499H46.7259V41.7331H44.2811V41.9507C44.2811 43.3971 45.3435 44.8051 47.0075 45.3811L46.4315 46.2515C45.1771 45.7907 44.2427 44.8691 43.7563 43.7299C43.2699 45.0099 42.2715 46.0211 40.9403 46.5075L40.3643 45.6243C42.0539 45.0227 43.1675 43.5379 43.1675 41.9635V41.7331H40.6971V40.8499ZM59.4238 40.1843H60.5374V51.4483H59.4238V40.1843ZM57.2094 41.3875C57.2094 44.6771 55.7886 47.5315 51.987 49.3747L51.3982 48.4915C54.3934 47.0579 55.8654 44.9459 56.083 42.2963H51.923V41.3875H57.2094Z" fill="#7B8598"/>
<g opacity="0.8">
<mask id="path-4-inside-1_2858_10435" fill="white">
<path d="M96 43.1725C96 40.1444 98.7853 37.8824 101.749 38.5036L136.984 45.8885C137.641 46.0262 138.319 46.0237 138.975 45.8812L172.706 38.5544C175.679 37.9088 178.488 40.1742 178.488 43.2165V106.667C178.488 108.958 176.86 110.925 174.609 111.353L138.855 118.148C138.277 118.258 137.683 118.26 137.104 118.153L99.9102 111.333C97.6454 110.917 96.0002 108.944 96 106.641V43.1725Z"/>
</mask>
<path d="M96 43.1725C96 40.1444 98.7853 37.8824 101.749 38.5036L136.984 45.8885C137.641 46.0262 138.319 46.0237 138.975 45.8812L172.706 38.5544C175.679 37.9088 178.488 40.1742 178.488 43.2165V106.667C178.488 108.958 176.86 110.925 174.609 111.353L138.855 118.148C138.277 118.258 137.683 118.26 137.104 118.153L99.9102 111.333C97.6454 110.917 96.0002 108.944 96 106.641V43.1725Z" fill="url(#paint0_linear_2858_10435)" fill-opacity="0.6"/>
<path d="M101.749 38.5036L102.075 36.9473L102.075 36.9473L101.749 38.5036ZM172.706 38.5544L172.369 37.0005L172.369 37.0005L172.706 38.5544ZM174.609 111.353L174.906 112.915L174.906 112.915L174.609 111.353ZM99.9102 111.333L100.197 109.769H100.197L99.9102 111.333ZM96 106.641H94.4099V106.641L96 106.641ZM138.855 118.148L138.559 116.586L138.855 118.148ZM137.104 118.153L137.391 116.589L137.104 118.153ZM136.984 45.8885L136.658 47.4448L136.984 45.8885ZM138.975 45.8812L138.638 44.3274L138.975 45.8812ZM96 43.1725H97.5901C97.5901 41.1538 99.447 39.6457 101.423 40.0598L101.749 38.5036L102.075 36.9473C98.1236 36.1191 94.4099 39.1349 94.4099 43.1725H96ZM101.749 38.5036L101.423 40.0598L136.658 47.4448L136.984 45.8885L137.31 44.3322L102.075 36.9473L101.749 38.5036ZM138.975 45.8812L139.313 47.4351L173.044 40.1082L172.706 38.5544L172.369 37.0005L138.638 44.3274L138.975 45.8812ZM172.706 38.5544L173.043 40.1082C175.025 39.6779 176.898 41.188 176.898 43.2165H178.488H180.078C180.078 39.1604 176.333 36.1397 172.369 37.0005L172.706 38.5544ZM178.488 43.2165H176.898V106.667H178.488H180.078V43.2165H178.488ZM178.488 106.667H176.898C176.898 108.194 175.813 109.506 174.312 109.791L174.609 111.353L174.906 112.915C177.907 112.345 180.078 109.721 180.078 106.667H178.488ZM174.609 111.353L174.313 109.791L138.559 116.586L138.855 118.148L139.152 119.71L174.906 112.915L174.609 111.353ZM137.104 118.153L137.391 116.589L100.197 109.769L99.9102 111.333L99.6233 112.897L136.818 119.717L137.104 118.153ZM99.9102 111.333L100.197 109.769C98.6868 109.492 97.5902 108.176 97.5901 106.641L96 106.641L94.4099 106.641C94.4101 109.712 96.6039 112.343 99.6234 112.897L99.9102 111.333ZM96 106.641H97.5901V43.1725H96H94.4099V106.641H96ZM138.855 118.148L138.559 116.586C138.173 116.659 137.777 116.66 137.391 116.589L137.104 118.153L136.818 119.717C137.59 119.859 138.381 119.856 139.152 119.71L138.855 118.148ZM136.984 45.8885L136.658 47.4448C137.534 47.6283 138.438 47.625 139.313 47.4351L138.975 45.8812L138.638 44.3274C138.201 44.4224 137.748 44.424 137.31 44.3322L136.984 45.8885Z" fill="url(#paint1_linear_2858_10435)" fill-opacity="0.9" mask="url(#path-4-inside-1_2858_10435)"/>
</g>
<path d="M137.612 47.2422V117.578" stroke="#B1CD88" stroke-width="0.685717"/>
<defs>
<linearGradient id="paint0_linear_2858_10435" x1="97.3219" y1="39.8531" x2="171.943" y2="137.125" gradientUnits="userSpaceOnUse">
<stop stop-color="#B7FF4C" stop-opacity="0.41"/>
<stop offset="0.302885" stop-color="#E0FABB" stop-opacity="0.65"/>
<stop offset="1" stop-color="#B7FF4C" stop-opacity="0.36"/>
</linearGradient>
<linearGradient id="paint1_linear_2858_10435" x1="107.717" y1="37.953" x2="166.855" y2="132.921" gradientUnits="userSpaceOnUse">
<stop stop-color="#6EAF0D" stop-opacity="0.77"/>
<stop offset="0.5" stop-color="#41650C" stop-opacity="0.4"/>
<stop offset="1" stop-color="#6EAF0D" stop-opacity="0.77"/>
</linearGradient>
</defs>
</svg>
